<mxfile host="app.diagrams.net" agent="Mozilla/5.0 (Windows NT 10.0; Win64; x64) AppleWebKit/537.36 (KHTML, like Gecko) Chrome/131.0.0.0 Safari/537.36 Edg/131.0.0.0" version="25.0.1" pages="5">
  <diagram id="O2qTWcCgpEyen09cB9Vq" name="Detect">
    <mxGraphModel dx="2142" dy="567" grid="1" gridSize="10" guides="1" tooltips="1" connect="1" arrows="1" fold="1" page="1" pageScale="1" pageWidth="1100" pageHeight="850" math="0" shadow="0">
      <root>
        <mxCell id="36csGr2VclgvQf6sPa_q-0" />
        <mxCell id="36csGr2VclgvQf6sPa_q-1" parent="36csGr2VclgvQf6sPa_q-0" />
        <mxCell id="8FYlF9s0BS1aPLCYh2ih-29" value="&lt;div align=&quot;left&quot;&gt;&lt;ul&gt;&lt;li&gt;Określ wpływ&lt;/li&gt;&lt;ul&gt;&lt;li&gt;Czy złośliwe oprogramowanie niszczy rzeczy?&lt;/li&gt;&lt;li&gt;&lt;font&gt;Czy złośliwe oprogramowanie rozprzestrzenia się (infekuje inne hosty)?&lt;/font&gt;&lt;br&gt;&lt;/li&gt;&lt;li&gt;Wpływ finansowy&lt;/li&gt;&lt;li&gt;&lt;span style=&quot;background-color: initial; text-align: center;&quot;&gt;Niebieski ekran&lt;/span&gt;&lt;/li&gt;&lt;li&gt;Inne:&lt;/li&gt;&lt;/ul&gt;&lt;li&gt;&lt;font&gt;Określ zakres&lt;/font&gt;&lt;br&gt;&lt;/li&gt;&lt;ul&gt;&lt;li&gt;&lt;font&gt;Liczba hostów,która otrzymało pliki (hash, nazwa)&lt;/font&gt;&lt;br&gt;&lt;/li&gt;&lt;li&gt;Liczba hostów, które próbują połączyć się z adresami URL&lt;/li&gt;&lt;li&gt;Liczba hostów z kluczami rejestru&lt;/li&gt;&lt;li&gt;Znaleziono inne wskaźniki kompromitacji IOC.&lt;/li&gt;&lt;/ul&gt;&lt;li&gt;Wyślij komunikację&lt;/li&gt;&lt;li&gt;&lt;font&gt;Określ, czy wynik jest fałszywie dodatni&lt;/font&gt;&lt;br&gt;&lt;/li&gt;&lt;/ul&gt;&lt;/div&gt;" style="text;html=1;resizable=0;autosize=1;align=center;verticalAlign=middle;points=[];fillColor=none;strokeColor=none;rounded=0;" parent="36csGr2VclgvQf6sPa_q-1" vertex="1">
          <mxGeometry x="420" y="505" width="480" height="220" as="geometry" />
        </mxCell>
        <mxCell id="8FYlF9s0BS1aPLCYh2ih-0" value="&lt;div&gt;RD5&lt;/div&gt;" style="whiteSpace=wrap;html=1;aspect=fixed;fillColor=#E6E6E6;rotation=319;" parent="36csGr2VclgvQf6sPa_q-1" vertex="1">
          <mxGeometry x="702" y="690" width="30" height="30" as="geometry" />
        </mxCell>
        <mxCell id="8FYlF9s0BS1aPLCYh2ih-3" value="&lt;div&gt;RD2&lt;/div&gt;" style="whiteSpace=wrap;html=1;aspect=fixed;fillColor=#E6E6E6;rotation=319;" parent="36csGr2VclgvQf6sPa_q-1" vertex="1">
          <mxGeometry x="410" y="290" width="30" height="30" as="geometry" />
        </mxCell>
        <mxCell id="8FYlF9s0BS1aPLCYh2ih-4" value=" Kanał RD1" style="whiteSpace=wrap;html=1;aspect=fixed;fillColor=#E6E6E6;rotation=319;" parent="36csGr2VclgvQf6sPa_q-1" vertex="1">
          <mxGeometry x="410" y="133" width="30" height="30" as="geometry" />
        </mxCell>
        <mxCell id="8FYlF9s0BS1aPLCYh2ih-5" value="Start" style="ellipse;whiteSpace=wrap;html=1;" parent="36csGr2VclgvQf6sPa_q-1" vertex="1">
          <mxGeometry x="104" y="68" width="120" height="40" as="geometry" />
        </mxCell>
        <mxCell id="8FYlF9s0BS1aPLCYh2ih-6" style="edgeStyle=orthogonalEdgeStyle;rounded=0;orthogonalLoop=1;jettySize=auto;html=1;exitX=0.5;exitY=1;exitDx=0;exitDy=0;" parent="36csGr2VclgvQf6sPa_q-1" source="8FYlF9s0BS1aPLCYh2ih-5" target="8FYlF9s0BS1aPLCYh2ih-5" edge="1">
          <mxGeometry relative="1" as="geometry" />
        </mxCell>
        <mxCell id="8FYlF9s0BS1aPLCYh2ih-7" value="" style="edgeStyle=orthogonalEdgeStyle;rounded=0;orthogonalLoop=1;jettySize=auto;html=1;entryX=0;entryY=0.5;entryDx=0;entryDy=0;" parent="36csGr2VclgvQf6sPa_q-1" source="8FYlF9s0BS1aPLCYh2ih-8" target="8FYlF9s0BS1aPLCYh2ih-32" edge="1">
          <mxGeometry relative="1" as="geometry">
            <mxPoint x="412" y="188" as="targetPoint" />
          </mxGeometry>
        </mxCell>
        <mxCell id="8FYlF9s0BS1aPLCYh2ih-8" value="Alerts" style="shape=parallelogram;perimeter=parallelogramPerimeter;whiteSpace=wrap;html=1;fixedSize=1;" parent="36csGr2VclgvQf6sPa_q-1" vertex="1">
          <mxGeometry x="228" y="158" width="120" height="60" as="geometry" />
        </mxCell>
        <mxCell id="8FYlF9s0BS1aPLCYh2ih-9" value="" style="edgeStyle=orthogonalEdgeStyle;rounded=0;orthogonalLoop=1;jettySize=auto;html=1;entryX=1;entryY=0.5;entryDx=0;entryDy=0;" parent="36csGr2VclgvQf6sPa_q-1" source="8FYlF9s0BS1aPLCYh2ih-10" target="8FYlF9s0BS1aPLCYh2ih-32" edge="1">
          <mxGeometry relative="1" as="geometry">
            <mxPoint x="512" y="188" as="targetPoint" />
          </mxGeometry>
        </mxCell>
        <mxCell id="8FYlF9s0BS1aPLCYh2ih-10" value="Notifications" style="shape=parallelogram;perimeter=parallelogramPerimeter;whiteSpace=wrap;html=1;fixedSize=1;" parent="36csGr2VclgvQf6sPa_q-1" vertex="1">
          <mxGeometry x="592.5" y="158" width="120" height="60" as="geometry" />
        </mxCell>
        <mxCell id="8FYlF9s0BS1aPLCYh2ih-11" value="" style="endArrow=classic;html=1;entryX=0.5;entryY=0;entryDx=0;entryDy=0;exitX=1;exitY=0.5;exitDx=0;exitDy=0;rounded=0;" parent="36csGr2VclgvQf6sPa_q-1" source="8FYlF9s0BS1aPLCYh2ih-5" edge="1">
          <mxGeometry width="50" height="50" relative="1" as="geometry">
            <mxPoint x="194" y="168" as="sourcePoint" />
            <mxPoint x="462" y="148" as="targetPoint" />
            <Array as="points">
              <mxPoint x="462" y="88" />
            </Array>
          </mxGeometry>
        </mxCell>
        <mxCell id="8FYlF9s0BS1aPLCYh2ih-12" value="" style="edgeStyle=orthogonalEdgeStyle;rounded=0;orthogonalLoop=1;jettySize=auto;html=1;entryX=0;entryY=0.5;entryDx=0;entryDy=0;" parent="36csGr2VclgvQf6sPa_q-1" source="8FYlF9s0BS1aPLCYh2ih-13" target="8FYlF9s0BS1aPLCYh2ih-33" edge="1">
          <mxGeometry relative="1" as="geometry">
            <mxPoint x="407.5" y="345" as="targetPoint" />
          </mxGeometry>
        </mxCell>
        <mxCell id="8FYlF9s0BS1aPLCYh2ih-13" value="Wspólne" style="shape=parallelogram;perimeter=parallelogramPerimeter;whiteSpace=wrap;html=1;fixedSize=1;" parent="36csGr2VclgvQf6sPa_q-1" vertex="1">
          <mxGeometry x="213.5" y="315" width="120" height="60" as="geometry" />
        </mxCell>
        <mxCell id="8FYlF9s0BS1aPLCYh2ih-14" value="" style="edgeStyle=orthogonalEdgeStyle;rounded=0;orthogonalLoop=1;jettySize=auto;html=1;" parent="36csGr2VclgvQf6sPa_q-1" source="8FYlF9s0BS1aPLCYh2ih-15" edge="1">
          <mxGeometry relative="1" as="geometry">
            <mxPoint x="530" y="345" as="targetPoint" />
          </mxGeometry>
        </mxCell>
        <mxCell id="8FYlF9s0BS1aPLCYh2ih-15" value="Specyfikaczne dla organizacji" style="shape=parallelogram;perimeter=parallelogramPerimeter;whiteSpace=wrap;html=1;fixedSize=1;" parent="36csGr2VclgvQf6sPa_q-1" vertex="1">
          <mxGeometry x="588" y="315" width="120" height="60" as="geometry" />
        </mxCell>
        <mxCell id="8FYlF9s0BS1aPLCYh2ih-16" value="" style="edgeStyle=orthogonalEdgeStyle;rounded=0;orthogonalLoop=1;jettySize=auto;html=1;entryX=0;entryY=0.5;entryDx=0;entryDy=0;" parent="36csGr2VclgvQf6sPa_q-1" source="8FYlF9s0BS1aPLCYh2ih-17" target="8FYlF9s0BS1aPLCYh2ih-21" edge="1">
          <mxGeometry relative="1" as="geometry">
            <mxPoint x="284" y="480" as="targetPoint" />
          </mxGeometry>
        </mxCell>
        <mxCell id="8FYlF9s0BS1aPLCYh2ih-17" value="Data Collection" style="shape=parallelogram;perimeter=parallelogramPerimeter;whiteSpace=wrap;html=1;fixedSize=1;" parent="36csGr2VclgvQf6sPa_q-1" vertex="1">
          <mxGeometry x="210" y="450.5" width="120" height="60" as="geometry" />
        </mxCell>
        <mxCell id="8FYlF9s0BS1aPLCYh2ih-20" value="" style="edgeStyle=orthogonalEdgeStyle;rounded=0;orthogonalLoop=1;jettySize=auto;html=1;" parent="36csGr2VclgvQf6sPa_q-1" source="8FYlF9s0BS1aPLCYh2ih-21" target="8FYlF9s0BS1aPLCYh2ih-48" edge="1">
          <mxGeometry relative="1" as="geometry">
            <mxPoint x="722.5" y="480" as="targetPoint" />
            <Array as="points">
              <mxPoint x="852" y="480" />
              <mxPoint x="852" y="670" />
              <mxPoint x="757" y="670" />
            </Array>
          </mxGeometry>
        </mxCell>
        <mxCell id="8FYlF9s0BS1aPLCYh2ih-21" value="Triage" style="whiteSpace=wrap;html=1;" parent="36csGr2VclgvQf6sPa_q-1" vertex="1">
          <mxGeometry x="542" y="450" width="120" height="60" as="geometry" />
        </mxCell>
        <mxCell id="8FYlF9s0BS1aPLCYh2ih-22" value="&lt;h1&gt;Ransom - Detect&lt;br&gt;&lt;/h1&gt;" style="text;html=1;strokeColor=none;fillColor=none;spacing=5;spacingTop=-20;whiteSpace=wrap;overflow=hidden;rounded=0;" parent="36csGr2VclgvQf6sPa_q-1" vertex="1">
          <mxGeometry x="20" y="20" width="260" height="40" as="geometry" />
        </mxCell>
        <mxCell id="8FYlF9s0BS1aPLCYh2ih-23" value="" style="endArrow=classic;html=1;exitX=0.5;exitY=1;exitDx=0;exitDy=0;rounded=0;" parent="36csGr2VclgvQf6sPa_q-1" source="8FYlF9s0BS1aPLCYh2ih-33" target="8FYlF9s0BS1aPLCYh2ih-17" edge="1">
          <mxGeometry width="50" height="50" relative="1" as="geometry">
            <mxPoint x="457.5" y="385" as="sourcePoint" />
            <mxPoint x="499.5" y="375" as="targetPoint" />
            <Array as="points">
              <mxPoint x="465" y="410" />
              <mxPoint x="271" y="410" />
            </Array>
          </mxGeometry>
        </mxCell>
        <mxCell id="8FYlF9s0BS1aPLCYh2ih-24" value="&lt;div align=&quot;left&quot;&gt;&lt;ul&gt;&lt;li&gt;Zgłoszenia mailów/aplikacja SOL&lt;/li&gt;&lt;li&gt;&lt;span style=&quot;text-align: center&quot;&gt;SIEM (SIEM)&lt;/span&gt;&lt;/li&gt;&lt;li&gt;&lt;span style=&quot;text-align: center&quot;&gt;Alerty AV / EDR&lt;/span&gt;&lt;br&gt;&lt;/li&gt;&lt;li&gt;&lt;span style=&quot;text-align: center&quot;&gt;Raporty (DNS, serwer proxy sieci Web)&lt;/span&gt;&lt;br&gt;&lt;/li&gt;&lt;/ul&gt;&lt;/div&gt;" style="text;html=1;resizable=0;autosize=1;align=center;verticalAlign=middle;points=[];fillColor=none;strokeColor=none;rounded=0;" parent="36csGr2VclgvQf6sPa_q-1" vertex="1">
          <mxGeometry x="-14" y="138" width="270" height="100" as="geometry" />
        </mxCell>
        <mxCell id="8FYlF9s0BS1aPLCYh2ih-25" value="&lt;div align=&quot;left&quot;&gt;&lt;ul&gt;&lt;li&gt;&lt;font&gt;Od użytkowników&lt;/font&gt;&lt;br&gt;&lt;/li&gt;&lt;li&gt;&lt;font&gt;Od adresatów&lt;/font&gt;&lt;br&gt;&lt;/li&gt;&lt;li&gt;&lt;font&gt;Od stron trzecich&lt;/font&gt;&lt;br&gt;&lt;/li&gt;&lt;li&gt;&lt;font&gt;Dostawca usług internetowych &lt;/font&gt;&lt;br&gt;&lt;/li&gt;&lt;li&gt;Dostawca poczty&lt;/li&gt;&lt;li&gt;Komputer&amp;nbsp;&lt;/li&gt;&lt;ul&gt;&lt;li&gt;Jest powolny&lt;/li&gt;&lt;li&gt;Nieoczekiwana awaria&lt;/li&gt;&lt;/ul&gt;&lt;/ul&gt;&lt;/div&gt;" style="text;html=1;resizable=0;autosize=1;align=center;verticalAlign=middle;points=[];fillColor=none;strokeColor=none;rounded=0;" parent="36csGr2VclgvQf6sPa_q-1" vertex="1">
          <mxGeometry x="675" y="133" width="230" height="150" as="geometry" />
        </mxCell>
        <mxCell id="8FYlF9s0BS1aPLCYh2ih-26" value="&lt;div align=&quot;left&quot;&gt;&lt;ul&gt;&lt;li&gt;Credential theft&lt;br&gt;&lt;/li&gt;&lt;li&gt;Malware delivery&lt;br&gt;&lt;/li&gt;&lt;li&gt;Criminal activities&lt;br&gt;&lt;/li&gt;&lt;ul&gt;&lt;li&gt;Financial losses &lt;br&gt;&lt;/li&gt;&lt;li&gt;Blackmail / Ransom&lt;br&gt;&lt;/li&gt;&lt;/ul&gt;&lt;/ul&gt;&lt;/div&gt;" style="text;html=1;resizable=0;autosize=1;align=center;verticalAlign=middle;points=[];fillColor=none;strokeColor=none;rounded=0;" parent="36csGr2VclgvQf6sPa_q-1" vertex="1">
          <mxGeometry x="11" y="295" width="200" height="100" as="geometry" />
        </mxCell>
        <mxCell id="8FYlF9s0BS1aPLCYh2ih-27" value="&lt;div align=&quot;left&quot;&gt;&lt;ul&gt;&lt;li&gt;&lt;font&gt;Utrata reputacji&lt;/font&gt;&lt;br&gt;&lt;/li&gt;&lt;li&gt;Straty finansowe&lt;/li&gt;&lt;ul&gt;&lt;li&gt;Utracona umowa/odnowienie&lt;/li&gt;&lt;li&gt;&lt;font&gt;Niższa oferta dla naszych klientów&lt;/font&gt;&lt;br&gt;&lt;/li&gt;&lt;li&gt;Grzywny (rozporządzenie)&lt;/li&gt;&lt;/ul&gt;&lt;/ul&gt;&lt;/div&gt;" style="text;html=1;resizable=0;autosize=1;align=center;verticalAlign=middle;points=[];fillColor=none;strokeColor=none;rounded=0;" parent="36csGr2VclgvQf6sPa_q-1" vertex="1">
          <mxGeometry x="655" y="295" width="290" height="110" as="geometry" />
        </mxCell>
        <mxCell id="8FYlF9s0BS1aPLCYh2ih-30" value="&lt;div align=&quot;left&quot;&gt;&lt;ul&gt;&lt;li&gt;Groźba&lt;/li&gt;&lt;ul&gt;&lt;li&gt;Adres Bitcoin&lt;/li&gt;&lt;li&gt;E-mail&lt;/li&gt;&lt;/ul&gt;&lt;li&gt;Plik&lt;/li&gt;&lt;ul&gt;&lt;li&gt;Hasz&lt;/li&gt;&lt;li&gt;Reputacja&lt;/li&gt;&lt;li&gt;Typ rozszerzenia&lt;/li&gt;&lt;li&gt;&lt;font&gt;Zachowanie&lt;/font&gt;&lt;br&gt;&lt;/li&gt;&lt;/ul&gt;&lt;li&gt;Domena&lt;/li&gt;&lt;ul&gt;&lt;li&gt;Reputacja&lt;/li&gt;&lt;li&gt;Rejestrator&lt;/li&gt;&lt;li&gt;Właściciel&lt;/li&gt;&lt;li&gt;IP&lt;/li&gt;&lt;li&gt;Wieloetapowy/przekierowanie&lt;/li&gt;&lt;li&gt;Technologie&lt;/li&gt;&lt;ul&gt;&lt;li&gt;WordPress (angielski)&lt;/li&gt;&lt;li&gt;Joomla (Joomla)&lt;/li&gt;&lt;li&gt;Inne:&lt;/li&gt;&lt;/ul&gt;&lt;/ul&gt;&lt;li&gt;IP&lt;/li&gt;&lt;ul&gt;&lt;li&gt;Reputacja&lt;/li&gt;&lt;li&gt;Inne domeny (vhosty)&lt;/li&gt;&lt;/ul&gt;&lt;br&gt;&lt;/ul&gt;&lt;/div&gt;" style="text;html=1;resizable=0;autosize=1;align=center;verticalAlign=middle;points=[];fillColor=none;strokeColor=none;rounded=0;" parent="36csGr2VclgvQf6sPa_q-1" vertex="1">
          <mxGeometry x="150" y="505" width="260" height="350" as="geometry" />
        </mxCell>
        <mxCell id="8FYlF9s0BS1aPLCYh2ih-31" value="" style="edgeStyle=orthogonalEdgeStyle;rounded=0;orthogonalLoop=1;jettySize=auto;html=1;" parent="36csGr2VclgvQf6sPa_q-1" source="8FYlF9s0BS1aPLCYh2ih-32" target="8FYlF9s0BS1aPLCYh2ih-33" edge="1">
          <mxGeometry relative="1" as="geometry" />
        </mxCell>
        <mxCell id="8FYlF9s0BS1aPLCYh2ih-32" value="&lt;font&gt;Identyfikacja&lt;/font&gt;&lt;br&gt;&lt;div&gt;&lt;font&gt;Wskaźników Zagrożeń&lt;/font&gt;&lt;/div&gt;" style="rhombus;whiteSpace=wrap;html=1;shadow=0;fontFamily=Helvetica;fontSize=12;align=center;strokeWidth=1;spacing=6;spacingTop=-4;" parent="36csGr2VclgvQf6sPa_q-1" vertex="1">
          <mxGeometry x="399.5" y="133" width="130" height="110" as="geometry" />
        </mxCell>
        <mxCell id="8FYlF9s0BS1aPLCYh2ih-33" value="&lt;font&gt;Identyfikacja czynników ryzyka&lt;/font&gt;" style="rhombus;whiteSpace=wrap;html=1;shadow=0;fontFamily=Helvetica;fontSize=12;align=center;strokeWidth=1;spacing=6;spacingTop=-4;" parent="36csGr2VclgvQf6sPa_q-1" vertex="1">
          <mxGeometry x="399.5" y="290" width="130" height="110" as="geometry" />
        </mxCell>
        <mxCell id="8FYlF9s0BS1aPLCYh2ih-36" style="edgeStyle=orthogonalEdgeStyle;rounded=0;orthogonalLoop=1;jettySize=auto;html=1;entryX=0;entryY=0.5;entryDx=0;entryDy=0;" parent="36csGr2VclgvQf6sPa_q-1" edge="1">
          <mxGeometry relative="1" as="geometry">
            <Array as="points">
              <mxPoint x="471" y="770" />
            </Array>
            <mxPoint x="471" y="529.5" as="sourcePoint" />
          </mxGeometry>
        </mxCell>
        <mxCell id="8FYlF9s0BS1aPLCYh2ih-43" value="Next&lt;br&gt;(Analyze)" style="shape=step;perimeter=stepPerimeter;whiteSpace=wrap;html=1;fixedSize=1;" parent="36csGr2VclgvQf6sPa_q-1" vertex="1">
          <mxGeometry x="939" y="690" width="120" height="40" as="geometry" />
        </mxCell>
        <mxCell id="8FYlF9s0BS1aPLCYh2ih-44" style="edgeStyle=orthogonalEdgeStyle;rounded=0;orthogonalLoop=1;jettySize=auto;html=1;exitX=1;exitY=0.5;exitDx=0;exitDy=0;entryX=0;entryY=0.5;entryDx=0;entryDy=0;" parent="36csGr2VclgvQf6sPa_q-1" source="8FYlF9s0BS1aPLCYh2ih-48" target="8FYlF9s0BS1aPLCYh2ih-43" edge="1">
          <mxGeometry relative="1" as="geometry" />
        </mxCell>
        <mxCell id="8FYlF9s0BS1aPLCYh2ih-45" value="No" style="edgeLabel;html=1;align=center;verticalAlign=middle;resizable=0;points=[];" parent="8FYlF9s0BS1aPLCYh2ih-44" vertex="1" connectable="0">
          <mxGeometry x="-0.7326" y="-2" relative="1" as="geometry">
            <mxPoint as="offset" />
          </mxGeometry>
        </mxCell>
        <mxCell id="8FYlF9s0BS1aPLCYh2ih-46" style="edgeStyle=orthogonalEdgeStyle;rounded=0;orthogonalLoop=1;jettySize=auto;html=1;exitX=0.5;exitY=1;exitDx=0;exitDy=0;entryX=0;entryY=0.5;entryDx=0;entryDy=0;" parent="36csGr2VclgvQf6sPa_q-1" source="8FYlF9s0BS1aPLCYh2ih-48" target="8FYlF9s0BS1aPLCYh2ih-49" edge="1">
          <mxGeometry relative="1" as="geometry" />
        </mxCell>
        <mxCell id="8FYlF9s0BS1aPLCYh2ih-47" value="Yes" style="edgeLabel;html=1;align=center;verticalAlign=middle;resizable=0;points=[];" parent="8FYlF9s0BS1aPLCYh2ih-46" vertex="1" connectable="0">
          <mxGeometry x="-0.3663" y="-2" relative="1" as="geometry">
            <mxPoint as="offset" />
          </mxGeometry>
        </mxCell>
        <mxCell id="8FYlF9s0BS1aPLCYh2ih-48" value="&lt;div&gt;Wynik fałszywie dodatni&lt;/div&gt;" style="rhombus;whiteSpace=wrap;html=1;shadow=0;fontFamily=Helvetica;fontSize=12;align=center;strokeWidth=1;spacing=6;spacingTop=-4;" parent="36csGr2VclgvQf6sPa_q-1" vertex="1">
          <mxGeometry x="692" y="690" width="130" height="110" as="geometry" />
        </mxCell>
        <mxCell id="8FYlF9s0BS1aPLCYh2ih-49" value="&lt;div&gt;Koniec:&lt;/div&gt;" style="ellipse;whiteSpace=wrap;html=1;" parent="36csGr2VclgvQf6sPa_q-1" vertex="1">
          <mxGeometry x="939" y="780" width="120" height="40" as="geometry" />
        </mxCell>
        <mxCell id="8FYlF9s0BS1aPLCYh2ih-51" value="Kanał RD4" style="whiteSpace=wrap;html=1;aspect=fixed;fillColor=#E6E6E6;rotation=0;" parent="36csGr2VclgvQf6sPa_q-1" vertex="1">
          <mxGeometry x="542" y="420" width="30" height="30" as="geometry" />
        </mxCell>
        <mxCell id="8FYlF9s0BS1aPLCYh2ih-52" value="Kanał RD3" style="whiteSpace=wrap;html=1;aspect=fixed;fillColor=#E6E6E6;rotation=0;" parent="36csGr2VclgvQf6sPa_q-1" vertex="1">
          <mxGeometry x="230" y="420.5" width="30" height="30" as="geometry" />
        </mxCell>
      </root>
    </mxGraphModel>
  </diagram>
  <diagram id="arB7W-cswd-6OK9oLtKj" name="Analyze">
    <mxGraphModel dx="1186" dy="767" grid="1" gridSize="10" guides="1" tooltips="1" connect="1" arrows="1" fold="1" page="1" pageScale="1" pageWidth="1100" pageHeight="850" math="0" shadow="0">
      <root>
        <mxCell id="-pnCLeIIcDpPo0bB913H-0" />
        <mxCell id="-pnCLeIIcDpPo0bB913H-1" parent="-pnCLeIIcDpPo0bB913H-0" />
        <mxCell id="-pnCLeIIcDpPo0bB913H-2" value="&lt;div style=&quot;font-size: 10px&quot;&gt;RA21&lt;/div&gt;" style="whiteSpace=wrap;html=1;aspect=fixed;fillColor=#E6E6E6;rotation=319;fontSize=10;" parent="-pnCLeIIcDpPo0bB913H-1" vertex="1">
          <mxGeometry x="333.95" y="1053.74" width="30" height="30" as="geometry" />
        </mxCell>
        <mxCell id="-pnCLeIIcDpPo0bB913H-3" value="&lt;div style=&quot;font-size: 10px&quot;&gt;RA19&lt;/div&gt;" style="whiteSpace=wrap;html=1;aspect=fixed;fillColor=#E6E6E6;rotation=319;fontSize=10;" parent="-pnCLeIIcDpPo0bB913H-1" vertex="1">
          <mxGeometry x="154.45" y="1052.74" width="30" height="30" as="geometry" />
        </mxCell>
        <mxCell id="-pnCLeIIcDpPo0bB913H-4" value="&lt;div style=&quot;font-size: 12px&quot;&gt;RA4&lt;/div&gt;" style="whiteSpace=wrap;html=1;aspect=fixed;fillColor=#E6E6E6;rotation=319;fontSize=12;" parent="-pnCLeIIcDpPo0bB913H-1" vertex="1">
          <mxGeometry x="508" y="175.25" width="30" height="30" as="geometry" />
        </mxCell>
        <mxCell id="-pnCLeIIcDpPo0bB913H-5" value="&lt;div&gt;&lt;font style=&quot;font-size: 10px&quot;&gt;RA18&lt;/font&gt;&lt;/div&gt;" style="whiteSpace=wrap;html=1;aspect=fixed;fillColor=#E6E6E6;rotation=319;fontSize=12;" parent="-pnCLeIIcDpPo0bB913H-1" vertex="1">
          <mxGeometry x="145.95" y="750" width="30" height="30" as="geometry" />
        </mxCell>
        <mxCell id="-pnCLeIIcDpPo0bB913H-7" style="edgeStyle=orthogonalEdgeStyle;rounded=0;orthogonalLoop=1;jettySize=auto;html=1;exitX=0.5;exitY=1;exitDx=0;exitDy=0;" parent="-pnCLeIIcDpPo0bB913H-1" edge="1">
          <mxGeometry relative="1" as="geometry">
            <mxPoint x="80" y="100" as="sourcePoint" />
            <mxPoint x="80" y="100" as="targetPoint" />
          </mxGeometry>
        </mxCell>
        <mxCell id="-pnCLeIIcDpPo0bB913H-13" value="" style="endArrow=classic;html=1;entryX=0.5;entryY=0;entryDx=0;entryDy=0;exitX=1;exitY=0.5;exitDx=0;exitDy=0;rounded=0;" parent="-pnCLeIIcDpPo0bB913H-1" target="-pnCLeIIcDpPo0bB913H-18" edge="1">
          <mxGeometry width="50" height="50" relative="1" as="geometry">
            <mxPoint x="140" y="80" as="sourcePoint" />
            <mxPoint x="160" y="110" as="targetPoint" />
            <Array as="points">
              <mxPoint x="200" y="80" />
            </Array>
          </mxGeometry>
        </mxCell>
        <mxCell id="-pnCLeIIcDpPo0bB913H-14" value="&lt;h1&gt;Ransom - Analyze&lt;br&gt;&lt;/h1&gt;" style="text;html=1;strokeColor=none;fillColor=none;spacing=5;spacingTop=-20;whiteSpace=wrap;overflow=hidden;rounded=0;" parent="-pnCLeIIcDpPo0bB913H-1" vertex="1">
          <mxGeometry x="10" y="10" width="260" height="40" as="geometry" />
        </mxCell>
        <mxCell id="-pnCLeIIcDpPo0bB913H-15" value="&lt;div&gt;Next&lt;/div&gt;(Contain)" style="shape=step;perimeter=stepPerimeter;whiteSpace=wrap;html=1;fixedSize=1;" parent="-pnCLeIIcDpPo0bB913H-1" vertex="1">
          <mxGeometry x="894.45" y="1092.74" width="120" height="40" as="geometry" />
        </mxCell>
        <mxCell id="-pnCLeIIcDpPo0bB913H-16" value="&lt;div&gt;Previous&lt;/div&gt;(Detect)" style="shape=step;perimeter=stepPerimeter;whiteSpace=wrap;html=1;fixedSize=1;" parent="-pnCLeIIcDpPo0bB913H-1" vertex="1">
          <mxGeometry x="24" y="60" width="120" height="40" as="geometry" />
        </mxCell>
        <mxCell id="XKnFLWoLnrM2bNzfTnCc-16" value="" style="edgeStyle=orthogonalEdgeStyle;rounded=0;orthogonalLoop=1;jettySize=auto;html=1;" parent="-pnCLeIIcDpPo0bB913H-1" source="-pnCLeIIcDpPo0bB913H-18" target="XKnFLWoLnrM2bNzfTnCc-15" edge="1">
          <mxGeometry relative="1" as="geometry" />
        </mxCell>
        <mxCell id="-pnCLeIIcDpPo0bB913H-18" value="Verify" style="whiteSpace=wrap;html=1;" parent="-pnCLeIIcDpPo0bB913H-1" vertex="1">
          <mxGeometry x="140" y="200" width="120" height="60" as="geometry" />
        </mxCell>
        <mxCell id="-pnCLeIIcDpPo0bB913H-23" value="&lt;div align=&quot;left&quot;&gt;&lt;ul&gt;&lt;li&gt;Double-check previous data&lt;br&gt;&lt;/li&gt;&lt;li&gt;Rule out false positive&lt;br&gt;&lt;/li&gt;&lt;/ul&gt;&lt;/div&gt;" style="text;html=1;resizable=0;autosize=1;align=center;verticalAlign=middle;points=[];fillColor=none;strokeColor=none;rounded=0;" parent="-pnCLeIIcDpPo0bB913H-1" vertex="1">
          <mxGeometry x="104" y="260" width="200" height="60" as="geometry" />
        </mxCell>
        <mxCell id="-pnCLeIIcDpPo0bB913H-24" style="edgeStyle=orthogonalEdgeStyle;rounded=0;orthogonalLoop=1;jettySize=auto;html=1;entryX=0;entryY=0.5;entryDx=0;entryDy=0;" parent="-pnCLeIIcDpPo0bB913H-1" source="-pnCLeIIcDpPo0bB913H-25" target="-pnCLeIIcDpPo0bB913H-18" edge="1">
          <mxGeometry relative="1" as="geometry">
            <Array as="points">
              <mxPoint x="100" y="409" />
              <mxPoint x="100" y="230" />
            </Array>
          </mxGeometry>
        </mxCell>
        <mxCell id="-pnCLeIIcDpPo0bB913H-25" value="&lt;div&gt;Scope &lt;br&gt;&lt;/div&gt;&lt;div&gt;Validation&lt;/div&gt;" style="whiteSpace=wrap;html=1;" parent="-pnCLeIIcDpPo0bB913H-1" vertex="1">
          <mxGeometry x="140" y="379" width="120" height="60" as="geometry" />
        </mxCell>
        <mxCell id="-pnCLeIIcDpPo0bB913H-26" value="" style="edgeStyle=orthogonalEdgeStyle;rounded=0;orthogonalLoop=1;jettySize=auto;html=1;entryX=0;entryY=0.5;entryDx=0;entryDy=0;" parent="-pnCLeIIcDpPo0bB913H-1" source="-pnCLeIIcDpPo0bB913H-27" target="-pnCLeIIcDpPo0bB913H-36" edge="1">
          <mxGeometry relative="1" as="geometry">
            <mxPoint x="694.45" y="1112.74" as="targetPoint" />
          </mxGeometry>
        </mxCell>
        <mxCell id="-pnCLeIIcDpPo0bB913H-27" value="&lt;div&gt;Root Cause&lt;/div&gt;&lt;div&gt;Analysis &lt;br&gt;&lt;/div&gt;" style="whiteSpace=wrap;html=1;" parent="-pnCLeIIcDpPo0bB913H-1" vertex="1">
          <mxGeometry x="519.45" y="1082.74" width="120" height="60" as="geometry" />
        </mxCell>
        <mxCell id="-pnCLeIIcDpPo0bB913H-30" style="edgeStyle=orthogonalEdgeStyle;rounded=0;orthogonalLoop=1;jettySize=auto;html=1;entryX=0;entryY=0.5;entryDx=0;entryDy=0;exitX=0;exitY=0.5;exitDx=0;exitDy=0;" parent="-pnCLeIIcDpPo0bB913H-1" source="-pnCLeIIcDpPo0bB913H-34" target="-pnCLeIIcDpPo0bB913H-41" edge="1">
          <mxGeometry relative="1" as="geometry">
            <Array as="points">
              <mxPoint x="100" y="810" />
              <mxPoint x="100" y="1113" />
            </Array>
            <mxPoint x="260" y="920.99" as="sourcePoint" />
            <mxPoint x="139.45" y="1132.74" as="targetPoint" />
          </mxGeometry>
        </mxCell>
        <mxCell id="-pnCLeIIcDpPo0bB913H-31" value="Yes" style="edgeLabel;html=1;align=center;verticalAlign=middle;resizable=0;points=[];" parent="-pnCLeIIcDpPo0bB913H-30" vertex="1" connectable="0">
          <mxGeometry x="-0.8042" y="-1" relative="1" as="geometry">
            <mxPoint y="13.45" as="offset" />
          </mxGeometry>
        </mxCell>
        <mxCell id="3Ur0eeaUsb5bqsIiQvKn-2" style="edgeStyle=orthogonalEdgeStyle;rounded=0;orthogonalLoop=1;jettySize=auto;html=1;exitX=0.5;exitY=1;exitDx=0;exitDy=0;entryX=0.5;entryY=0;entryDx=0;entryDy=0;" parent="-pnCLeIIcDpPo0bB913H-1" source="-pnCLeIIcDpPo0bB913H-34" target="-pnCLeIIcDpPo0bB913H-27" edge="1">
          <mxGeometry relative="1" as="geometry">
            <mxPoint x="325" y="975.99" as="sourcePoint" />
            <Array as="points">
              <mxPoint x="194" y="990" />
              <mxPoint x="580" y="990" />
            </Array>
          </mxGeometry>
        </mxCell>
        <mxCell id="3Ur0eeaUsb5bqsIiQvKn-3" value="No" style="edgeLabel;html=1;align=center;verticalAlign=middle;resizable=0;points=[];" parent="3Ur0eeaUsb5bqsIiQvKn-2" vertex="1" connectable="0">
          <mxGeometry x="-0.9041" relative="1" as="geometry">
            <mxPoint as="offset" />
          </mxGeometry>
        </mxCell>
        <mxCell id="-pnCLeIIcDpPo0bB913H-34" value="&lt;div&gt;Do We &lt;br&gt;&lt;/div&gt;&lt;div&gt;Need&lt;/div&gt;&lt;div&gt;External&lt;/div&gt;&lt;div&gt;Help&lt;br&gt;&lt;/div&gt;" style="rhombus;whiteSpace=wrap;html=1;shadow=0;fontFamily=Helvetica;fontSize=12;align=center;strokeWidth=1;spacing=6;spacingTop=-4;" parent="-pnCLeIIcDpPo0bB913H-1" vertex="1">
          <mxGeometry x="128.95" y="754.5" width="130" height="110" as="geometry" />
        </mxCell>
        <mxCell id="-pnCLeIIcDpPo0bB913H-35" value="" style="edgeStyle=orthogonalEdgeStyle;rounded=0;orthogonalLoop=1;jettySize=auto;html=1;" parent="-pnCLeIIcDpPo0bB913H-1" source="-pnCLeIIcDpPo0bB913H-36" target="-pnCLeIIcDpPo0bB913H-15" edge="1">
          <mxGeometry relative="1" as="geometry" />
        </mxCell>
        <mxCell id="-pnCLeIIcDpPo0bB913H-36" value="Send &lt;br&gt;Communication" style="whiteSpace=wrap;html=1;" parent="-pnCLeIIcDpPo0bB913H-1" vertex="1">
          <mxGeometry x="704.45" y="1082.74" width="120" height="60" as="geometry" />
        </mxCell>
        <mxCell id="-pnCLeIIcDpPo0bB913H-37" value="" style="edgeStyle=orthogonalEdgeStyle;rounded=0;orthogonalLoop=1;jettySize=auto;html=1;" parent="-pnCLeIIcDpPo0bB913H-1" source="-pnCLeIIcDpPo0bB913H-41" target="-pnCLeIIcDpPo0bB913H-47" edge="1">
          <mxGeometry relative="1" as="geometry" />
        </mxCell>
        <mxCell id="-pnCLeIIcDpPo0bB913H-38" value="Yes" style="edgeLabel;html=1;align=center;verticalAlign=middle;resizable=0;points=[];" parent="-pnCLeIIcDpPo0bB913H-37" vertex="1" connectable="0">
          <mxGeometry x="-0.2889" y="1" relative="1" as="geometry">
            <mxPoint as="offset" />
          </mxGeometry>
        </mxCell>
        <mxCell id="-pnCLeIIcDpPo0bB913H-39" value="" style="edgeStyle=orthogonalEdgeStyle;rounded=0;orthogonalLoop=1;jettySize=auto;html=1;" parent="-pnCLeIIcDpPo0bB913H-1" source="-pnCLeIIcDpPo0bB913H-41" target="-pnCLeIIcDpPo0bB913H-45" edge="1">
          <mxGeometry relative="1" as="geometry" />
        </mxCell>
        <mxCell id="-pnCLeIIcDpPo0bB913H-40" value="No" style="edgeLabel;html=1;align=center;verticalAlign=middle;resizable=0;points=[];" parent="-pnCLeIIcDpPo0bB913H-39" vertex="1" connectable="0">
          <mxGeometry x="-0.2444" y="-1" relative="1" as="geometry">
            <mxPoint as="offset" />
          </mxGeometry>
        </mxCell>
        <mxCell id="-pnCLeIIcDpPo0bB913H-41" value="&lt;div&gt;Do We &lt;br&gt;&lt;/div&gt;&lt;div&gt;Need &lt;br&gt;&lt;/div&gt;&lt;div&gt;Technical&lt;br&gt;&lt;/div&gt;&lt;div&gt;Help&lt;br&gt;&lt;/div&gt;" style="rhombus;whiteSpace=wrap;html=1;shadow=0;fontFamily=Helvetica;fontSize=12;align=center;strokeWidth=1;spacing=6;spacingTop=-4;" parent="-pnCLeIIcDpPo0bB913H-1" vertex="1">
          <mxGeometry x="139.45" y="1057.74" width="130" height="110" as="geometry" />
        </mxCell>
        <mxCell id="-pnCLeIIcDpPo0bB913H-42" value="" style="edgeStyle=orthogonalEdgeStyle;rounded=0;orthogonalLoop=1;jettySize=auto;html=1;" parent="-pnCLeIIcDpPo0bB913H-1" source="-pnCLeIIcDpPo0bB913H-45" target="-pnCLeIIcDpPo0bB913H-49" edge="1">
          <mxGeometry relative="1" as="geometry" />
        </mxCell>
        <mxCell id="-pnCLeIIcDpPo0bB913H-43" value="Yes" style="edgeLabel;html=1;align=center;verticalAlign=middle;resizable=0;points=[];" parent="-pnCLeIIcDpPo0bB913H-42" vertex="1" connectable="0">
          <mxGeometry x="-0.3111" y="1" relative="1" as="geometry">
            <mxPoint as="offset" />
          </mxGeometry>
        </mxCell>
        <mxCell id="-pnCLeIIcDpPo0bB913H-44" value="" style="edgeStyle=orthogonalEdgeStyle;rounded=0;orthogonalLoop=1;jettySize=auto;html=1;" parent="-pnCLeIIcDpPo0bB913H-1" source="-pnCLeIIcDpPo0bB913H-45" target="-pnCLeIIcDpPo0bB913H-27" edge="1">
          <mxGeometry relative="1" as="geometry" />
        </mxCell>
        <mxCell id="3Ur0eeaUsb5bqsIiQvKn-0" value="No" style="edgeLabel;html=1;align=center;verticalAlign=middle;resizable=0;points=[];" parent="-pnCLeIIcDpPo0bB913H-44" vertex="1" connectable="0">
          <mxGeometry x="-0.1843" y="2" relative="1" as="geometry">
            <mxPoint as="offset" />
          </mxGeometry>
        </mxCell>
        <mxCell id="-pnCLeIIcDpPo0bB913H-45" value="&lt;div&gt;Do We &lt;br&gt;&lt;/div&gt;&lt;div&gt;Need &lt;br&gt;&lt;/div&gt;&lt;div&gt;Legal&lt;br&gt;&lt;/div&gt;&lt;div&gt;Help&lt;br&gt;&lt;/div&gt;" style="rhombus;whiteSpace=wrap;html=1;shadow=0;fontFamily=Helvetica;fontSize=12;align=center;strokeWidth=1;spacing=6;spacingTop=-4;" parent="-pnCLeIIcDpPo0bB913H-1" vertex="1">
          <mxGeometry x="319.45" y="1057.74" width="130" height="110" as="geometry" />
        </mxCell>
        <mxCell id="-pnCLeIIcDpPo0bB913H-46" style="edgeStyle=orthogonalEdgeStyle;rounded=0;orthogonalLoop=1;jettySize=auto;html=1;exitX=0.75;exitY=0;exitDx=0;exitDy=0;entryX=0;entryY=1;entryDx=0;entryDy=0;fontSize=12;" parent="-pnCLeIIcDpPo0bB913H-1" source="-pnCLeIIcDpPo0bB913H-47" target="-pnCLeIIcDpPo0bB913H-45" edge="1">
          <mxGeometry relative="1" as="geometry">
            <Array as="points">
              <mxPoint x="234.95" y="1202.74" />
              <mxPoint x="351.95" y="1202.74" />
            </Array>
          </mxGeometry>
        </mxCell>
        <mxCell id="-pnCLeIIcDpPo0bB913H-47" value="&lt;div&gt;Contact&lt;/div&gt;&lt;div&gt;IR Pro. Serv.&lt;br&gt;&lt;/div&gt;" style="whiteSpace=wrap;html=1;" parent="-pnCLeIIcDpPo0bB913H-1" vertex="1">
          <mxGeometry x="144.45" y="1260" width="120" height="60" as="geometry" />
        </mxCell>
        <mxCell id="-pnCLeIIcDpPo0bB913H-48" style="edgeStyle=orthogonalEdgeStyle;rounded=0;orthogonalLoop=1;jettySize=auto;html=1;exitX=1;exitY=0.5;exitDx=0;exitDy=0;entryX=0;entryY=0.75;entryDx=0;entryDy=0;" parent="-pnCLeIIcDpPo0bB913H-1" source="-pnCLeIIcDpPo0bB913H-49" target="-pnCLeIIcDpPo0bB913H-27" edge="1">
          <mxGeometry relative="1" as="geometry">
            <mxPoint x="494.45000000000005" y="1127.74" as="targetPoint" />
            <Array as="points">
              <mxPoint x="464.45" y="1287.74" />
              <mxPoint x="464.45" y="1127.74" />
            </Array>
          </mxGeometry>
        </mxCell>
        <mxCell id="-pnCLeIIcDpPo0bB913H-49" value="&lt;div&gt;Contact&lt;/div&gt;&lt;div&gt;Breach Coach&lt;br&gt;&lt;/div&gt;" style="whiteSpace=wrap;html=1;" parent="-pnCLeIIcDpPo0bB913H-1" vertex="1">
          <mxGeometry x="324.45" y="1260" width="120" height="60" as="geometry" />
        </mxCell>
        <mxCell id="-pnCLeIIcDpPo0bB913H-50" value="&lt;div align=&quot;left&quot;&gt;&lt;ul&gt;&lt;li&gt;Phishing&lt;br&gt;&lt;/li&gt;&lt;li&gt;Vishing&lt;/li&gt;&lt;li&gt;Drive By Download&lt;/li&gt;&lt;li&gt;Vulnerability&lt;/li&gt;&lt;ul&gt;&lt;li&gt;RCE&lt;/li&gt;&lt;li&gt;XSS&lt;/li&gt;&lt;li&gt;LFI&lt;/li&gt;&lt;/ul&gt;&lt;li&gt;Remote Service&lt;/li&gt;&lt;ul&gt;&lt;li&gt;Default / Weak Password&lt;/li&gt;&lt;li&gt;Brute Force&lt;/li&gt;&lt;li&gt;Vulnerability&lt;br&gt;&lt;/li&gt;&lt;/ul&gt;&lt;li&gt;Lost Device&lt;br&gt;&lt;/li&gt;&lt;li&gt;Human Error&lt;/li&gt;&lt;/ul&gt;&lt;/div&gt;" style="text;html=1;resizable=0;autosize=1;align=center;verticalAlign=middle;points=[];fillColor=none;strokeColor=none;rounded=0;" parent="-pnCLeIIcDpPo0bB913H-1" vertex="1">
          <mxGeometry x="491.95" y="1142.74" width="230" height="210" as="geometry" />
        </mxCell>
        <mxCell id="-pnCLeIIcDpPo0bB913H-54" value="&lt;div align=&quot;left&quot;&gt;&lt;ul&gt;&lt;li&gt;New signs of data Encrypted&lt;br&gt;&lt;/li&gt;&lt;li&gt;Search customers &lt;br&gt;environment&lt;br&gt;&lt;/li&gt;&lt;li&gt;&lt;font style=&quot;font-size: 12px&quot;&gt;&lt;span style=&quot;left: 685.617px ; top: 452.607px ; font-family: sans-serif ; transform: scalex(1.01027)&quot;&gt;Search endpoints for IOCs &lt;br&gt;w/ EDR&lt;/span&gt;&lt;/font&gt;&lt;/li&gt;&lt;li&gt;&lt;font style=&quot;font-size: 12px&quot;&gt;&lt;span style=&quot;left: 685.617px ; top: 452.607px ; font-family: sans-serif ; transform: scalex(1.01027)&quot;&gt;Search firewall/proxy/DNS &lt;br&gt;logs for IOCs&lt;br&gt;&lt;/span&gt;&lt;/font&gt;&lt;/li&gt;&lt;/ul&gt;&lt;/div&gt;" style="text;html=1;resizable=0;autosize=1;align=center;verticalAlign=middle;points=[];fillColor=none;strokeColor=none;rounded=0;" parent="-pnCLeIIcDpPo0bB913H-1" vertex="1">
          <mxGeometry x="90" y="441.25" width="210" height="130" as="geometry" />
        </mxCell>
        <mxCell id="-pnCLeIIcDpPo0bB913H-55" value="&lt;div align=&quot;left&quot;&gt;&lt;ul&gt;&lt;li&gt;Internal Security Teams&lt;/li&gt;&lt;li&gt;Affected Clients&lt;/li&gt;&lt;li&gt;&lt;span style=&quot;text-align: center&quot;&gt;Any internal teams needed for&amp;nbsp;&lt;br&gt;&lt;/span&gt;remediation or counselling&lt;/li&gt;&lt;/ul&gt;&lt;/div&gt;" style="text;html=1;resizable=0;autosize=1;align=center;verticalAlign=middle;points=[];fillColor=none;strokeColor=none;rounded=0;" parent="-pnCLeIIcDpPo0bB913H-1" vertex="1">
          <mxGeometry x="674.45" y="1142.74" width="220" height="90" as="geometry" />
        </mxCell>
        <mxCell id="VWcWIzXyvp8xfv4rWOoz-18" value="No" style="edgeStyle=orthogonalEdgeStyle;rounded=0;orthogonalLoop=1;jettySize=auto;html=1;" parent="-pnCLeIIcDpPo0bB913H-1" source="-pnCLeIIcDpPo0bB913H-60" target="VWcWIzXyvp8xfv4rWOoz-2" edge="1">
          <mxGeometry relative="1" as="geometry" />
        </mxCell>
        <mxCell id="XKnFLWoLnrM2bNzfTnCc-9" style="edgeStyle=orthogonalEdgeStyle;rounded=0;orthogonalLoop=1;jettySize=auto;html=1;" parent="-pnCLeIIcDpPo0bB913H-1" source="-pnCLeIIcDpPo0bB913H-60" target="XKnFLWoLnrM2bNzfTnCc-5" edge="1">
          <mxGeometry relative="1" as="geometry" />
        </mxCell>
        <mxCell id="OpmPpiviZIUaZ2mTxFx--2" value="Yes" style="edgeLabel;html=1;align=center;verticalAlign=middle;resizable=0;points=[];" parent="XKnFLWoLnrM2bNzfTnCc-9" vertex="1" connectable="0">
          <mxGeometry x="-0.5052" relative="1" as="geometry">
            <mxPoint as="offset" />
          </mxGeometry>
        </mxCell>
        <mxCell id="-pnCLeIIcDpPo0bB913H-60" value="&lt;div&gt;Live Threat &lt;br&gt;Actor?&lt;/div&gt;" style="rhombus;whiteSpace=wrap;html=1;shadow=0;fontFamily=Helvetica;fontSize=12;align=center;strokeWidth=1;spacing=6;spacingTop=-4;" parent="-pnCLeIIcDpPo0bB913H-1" vertex="1">
          <mxGeometry x="500" y="175.25" width="130" height="110" as="geometry" />
        </mxCell>
        <mxCell id="-pnCLeIIcDpPo0bB913H-62" value="RA1" style="whiteSpace=wrap;html=1;aspect=fixed;fillColor=#E6E6E6;rotation=0;" parent="-pnCLeIIcDpPo0bB913H-1" vertex="1">
          <mxGeometry x="140" y="170" width="30" height="30" as="geometry" />
        </mxCell>
        <mxCell id="-pnCLeIIcDpPo0bB913H-66" value="&lt;font style=&quot;font-size: 10px&quot;&gt;RA17&lt;/font&gt;" style="whiteSpace=wrap;html=1;aspect=fixed;fillColor=#E6E6E6;rotation=0;fontSize=12;" parent="-pnCLeIIcDpPo0bB913H-1" vertex="1">
          <mxGeometry x="140" y="349" width="30" height="30" as="geometry" />
        </mxCell>
        <mxCell id="-pnCLeIIcDpPo0bB913H-67" value="RA20" style="whiteSpace=wrap;html=1;aspect=fixed;fillColor=#E6E6E6;rotation=0;fontSize=10;" parent="-pnCLeIIcDpPo0bB913H-1" vertex="1">
          <mxGeometry x="144.45" y="1230" width="30" height="30" as="geometry" />
        </mxCell>
        <mxCell id="-pnCLeIIcDpPo0bB913H-68" value="RA22" style="whiteSpace=wrap;html=1;aspect=fixed;fillColor=#E6E6E6;rotation=0;fontSize=10;" parent="-pnCLeIIcDpPo0bB913H-1" vertex="1">
          <mxGeometry x="324.45" y="1230" width="30" height="30" as="geometry" />
        </mxCell>
        <mxCell id="-pnCLeIIcDpPo0bB913H-69" value="RA23" style="whiteSpace=wrap;html=1;aspect=fixed;fillColor=#E6E6E6;rotation=0;fontSize=10;" parent="-pnCLeIIcDpPo0bB913H-1" vertex="1">
          <mxGeometry x="519.45" y="1052.74" width="30" height="30" as="geometry" />
        </mxCell>
        <mxCell id="-pnCLeIIcDpPo0bB913H-78" value="RA24" style="whiteSpace=wrap;html=1;aspect=fixed;fillColor=#E6E6E6;rotation=0;fontSize=10;" parent="-pnCLeIIcDpPo0bB913H-1" vertex="1">
          <mxGeometry x="704.45" y="1052.74" width="30" height="30" as="geometry" />
        </mxCell>
        <mxCell id="VWcWIzXyvp8xfv4rWOoz-1" value="&lt;div style=&quot;font-size: 12px&quot;&gt;RA6&lt;/div&gt;" style="whiteSpace=wrap;html=1;aspect=fixed;fillColor=#E6E6E6;rotation=319;fontSize=12;" parent="-pnCLeIIcDpPo0bB913H-1" vertex="1">
          <mxGeometry x="683" y="175.25" width="30" height="30" as="geometry" />
        </mxCell>
        <mxCell id="VWcWIzXyvp8xfv4rWOoz-19" value="No" style="edgeStyle=orthogonalEdgeStyle;rounded=0;orthogonalLoop=1;jettySize=auto;html=1;" parent="-pnCLeIIcDpPo0bB913H-1" source="VWcWIzXyvp8xfv4rWOoz-2" target="VWcWIzXyvp8xfv4rWOoz-10" edge="1">
          <mxGeometry relative="1" as="geometry" />
        </mxCell>
        <mxCell id="XKnFLWoLnrM2bNzfTnCc-13" style="edgeStyle=orthogonalEdgeStyle;rounded=0;orthogonalLoop=1;jettySize=auto;html=1;" parent="-pnCLeIIcDpPo0bB913H-1" source="VWcWIzXyvp8xfv4rWOoz-2" target="XKnFLWoLnrM2bNzfTnCc-10" edge="1">
          <mxGeometry relative="1" as="geometry" />
        </mxCell>
        <mxCell id="OpmPpiviZIUaZ2mTxFx--3" value="Yes" style="edgeLabel;html=1;align=center;verticalAlign=middle;resizable=0;points=[];" parent="XKnFLWoLnrM2bNzfTnCc-13" vertex="1" connectable="0">
          <mxGeometry x="-0.6094" relative="1" as="geometry">
            <mxPoint as="offset" />
          </mxGeometry>
        </mxCell>
        <mxCell id="VWcWIzXyvp8xfv4rWOoz-2" value="&lt;div&gt;Do We Have&lt;br&gt;Backups?&lt;/div&gt;" style="rhombus;whiteSpace=wrap;html=1;shadow=0;fontFamily=Helvetica;fontSize=12;align=center;strokeWidth=1;spacing=6;spacingTop=-4;" parent="-pnCLeIIcDpPo0bB913H-1" vertex="1">
          <mxGeometry x="675" y="175.25" width="130" height="110" as="geometry" />
        </mxCell>
        <mxCell id="XKnFLWoLnrM2bNzfTnCc-32" style="edgeStyle=orthogonalEdgeStyle;rounded=0;orthogonalLoop=1;jettySize=auto;html=1;exitX=0;exitY=0.5;exitDx=0;exitDy=0;entryX=1;entryY=0.5;entryDx=0;entryDy=0;" parent="-pnCLeIIcDpPo0bB913H-1" source="VWcWIzXyvp8xfv4rWOoz-6" target="VWcWIzXyvp8xfv4rWOoz-13" edge="1">
          <mxGeometry relative="1" as="geometry">
            <mxPoint x="850.5" y="650" as="sourcePoint" />
          </mxGeometry>
        </mxCell>
        <mxCell id="VWcWIzXyvp8xfv4rWOoz-6" value="Indentify Threat Actor&lt;br&gt;Ransom Familly" style="whiteSpace=wrap;html=1;" parent="-pnCLeIIcDpPo0bB913H-1" vertex="1">
          <mxGeometry x="859.45" y="620" width="120" height="60" as="geometry" />
        </mxCell>
        <mxCell id="VWcWIzXyvp8xfv4rWOoz-7" value="&lt;div align=&quot;left&quot;&gt;&lt;ul&gt;&lt;li&gt;Find the usual TTP&lt;/li&gt;&lt;li&gt;Review effects of reboot&lt;/li&gt;&lt;li&gt;Can we decrypt?&lt;/li&gt;&lt;li&gt;Ransomware file extension&lt;/li&gt;&lt;li&gt;Which OS does this effect&lt;/li&gt;&lt;/ul&gt;&lt;/div&gt;" style="text;html=1;resizable=0;autosize=1;align=center;verticalAlign=middle;points=[];fillColor=none;strokeColor=none;rounded=0;" parent="-pnCLeIIcDpPo0bB913H-1" vertex="1">
          <mxGeometry x="834.45" y="679" width="200" height="100" as="geometry" />
        </mxCell>
        <mxCell id="VWcWIzXyvp8xfv4rWOoz-8" value="&lt;font style=&quot;font-size: 10px&quot;&gt;RA10&lt;/font&gt;" style="whiteSpace=wrap;html=1;aspect=fixed;fillColor=#E6E6E6;rotation=0;" parent="-pnCLeIIcDpPo0bB913H-1" vertex="1">
          <mxGeometry x="859.45" y="590" width="30" height="30" as="geometry" />
        </mxCell>
        <mxCell id="VWcWIzXyvp8xfv4rWOoz-9" value="&lt;div style=&quot;font-size: 12px&quot;&gt;RA8&lt;/div&gt;" style="whiteSpace=wrap;html=1;aspect=fixed;fillColor=#E6E6E6;rotation=319;fontSize=12;" parent="-pnCLeIIcDpPo0bB913H-1" vertex="1">
          <mxGeometry x="862.45" y="175.25" width="30" height="30" as="geometry" />
        </mxCell>
        <mxCell id="VWcWIzXyvp8xfv4rWOoz-20" value="" style="edgeStyle=orthogonalEdgeStyle;rounded=0;orthogonalLoop=1;jettySize=auto;html=1;entryX=1;entryY=0.5;entryDx=0;entryDy=0;" parent="-pnCLeIIcDpPo0bB913H-1" source="VWcWIzXyvp8xfv4rWOoz-10" target="VWcWIzXyvp8xfv4rWOoz-6" edge="1">
          <mxGeometry relative="1" as="geometry">
            <Array as="points">
              <mxPoint x="1060" y="230" />
              <mxPoint x="1060" y="650" />
            </Array>
            <mxPoint x="1000" y="650" as="targetPoint" />
          </mxGeometry>
        </mxCell>
        <mxCell id="Giv5K8NmcNyWIsF-DcK5-0" value="No" style="edgeLabel;html=1;align=center;verticalAlign=middle;resizable=0;points=[];" parent="VWcWIzXyvp8xfv4rWOoz-20" vertex="1" connectable="0">
          <mxGeometry x="-0.918" y="-2" relative="1" as="geometry">
            <mxPoint y="-2" as="offset" />
          </mxGeometry>
        </mxCell>
        <mxCell id="XKnFLWoLnrM2bNzfTnCc-4" style="edgeStyle=orthogonalEdgeStyle;rounded=0;orthogonalLoop=1;jettySize=auto;html=1;exitX=0.5;exitY=1;exitDx=0;exitDy=0;" parent="-pnCLeIIcDpPo0bB913H-1" source="VWcWIzXyvp8xfv4rWOoz-10" target="XKnFLWoLnrM2bNzfTnCc-0" edge="1">
          <mxGeometry relative="1" as="geometry" />
        </mxCell>
        <mxCell id="OpmPpiviZIUaZ2mTxFx--4" value="Yes" style="edgeLabel;html=1;align=center;verticalAlign=middle;resizable=0;points=[];" parent="XKnFLWoLnrM2bNzfTnCc-4" vertex="1" connectable="0">
          <mxGeometry x="-0.6736" y="1" relative="1" as="geometry">
            <mxPoint as="offset" />
          </mxGeometry>
        </mxCell>
        <mxCell id="VWcWIzXyvp8xfv4rWOoz-10" value="Infected AD &lt;br&gt;Trusted?" style="rhombus;whiteSpace=wrap;html=1;shadow=0;fontFamily=Helvetica;fontSize=12;align=center;strokeWidth=1;spacing=6;spacingTop=-4;" parent="-pnCLeIIcDpPo0bB913H-1" vertex="1">
          <mxGeometry x="854.45" y="175.25" width="130" height="110" as="geometry" />
        </mxCell>
        <mxCell id="cT68E0Syv4OXk3kiCojA-5" style="edgeStyle=orthogonalEdgeStyle;rounded=0;orthogonalLoop=1;jettySize=auto;html=1;exitX=0;exitY=0.5;exitDx=0;exitDy=0;" parent="-pnCLeIIcDpPo0bB913H-1" source="VWcWIzXyvp8xfv4rWOoz-13" target="cT68E0Syv4OXk3kiCojA-1" edge="1">
          <mxGeometry relative="1" as="geometry" />
        </mxCell>
        <mxCell id="VWcWIzXyvp8xfv4rWOoz-13" value="Identify Affected Systems Type" style="whiteSpace=wrap;html=1;" parent="-pnCLeIIcDpPo0bB913H-1" vertex="1">
          <mxGeometry x="674.45" y="620" width="120" height="60" as="geometry" />
        </mxCell>
        <mxCell id="VWcWIzXyvp8xfv4rWOoz-15" value="&lt;font style=&quot;font-size: 10px&quot;&gt;RA11&lt;/font&gt;" style="whiteSpace=wrap;html=1;aspect=fixed;fillColor=#E6E6E6;rotation=0;" parent="-pnCLeIIcDpPo0bB913H-1" vertex="1">
          <mxGeometry x="674.45" y="590" width="30" height="30" as="geometry" />
        </mxCell>
        <mxCell id="VWcWIzXyvp8xfv4rWOoz-14" value="&lt;div align=&quot;left&quot;&gt;&lt;ul&gt;&lt;li&gt;Servers&lt;/li&gt;&lt;li&gt;Workstations&lt;/li&gt;&lt;li&gt;Databases&lt;/li&gt;&lt;li&gt;Share Drive&lt;/li&gt;&lt;li&gt;SAN&lt;/li&gt;&lt;li&gt;Backups&lt;/li&gt;&lt;li&gt;etc.&lt;/li&gt;&lt;/ul&gt;&lt;/div&gt;" style="text;html=1;resizable=0;autosize=1;align=center;verticalAlign=middle;points=[];fillColor=none;strokeColor=none;rounded=0;" parent="-pnCLeIIcDpPo0bB913H-1" vertex="1">
          <mxGeometry x="658.45" y="679" width="120" height="130" as="geometry" />
        </mxCell>
        <mxCell id="OpmPpiviZIUaZ2mTxFx--6" style="edgeStyle=orthogonalEdgeStyle;rounded=0;orthogonalLoop=1;jettySize=auto;html=1;exitX=1;exitY=0.5;exitDx=0;exitDy=0;entryX=1;entryY=0.25;entryDx=0;entryDy=0;" parent="-pnCLeIIcDpPo0bB913H-1" source="XKnFLWoLnrM2bNzfTnCc-0" target="VWcWIzXyvp8xfv4rWOoz-6" edge="1">
          <mxGeometry relative="1" as="geometry">
            <Array as="points">
              <mxPoint x="980" y="411" />
              <mxPoint x="1040" y="411" />
              <mxPoint x="1040" y="634" />
            </Array>
            <mxPoint x="990" y="623" as="targetPoint" />
          </mxGeometry>
        </mxCell>
        <mxCell id="XKnFLWoLnrM2bNzfTnCc-0" value="Disable&amp;nbsp;&lt;br&gt;Trust With Infected&lt;br&gt;Domain" style="whiteSpace=wrap;html=1;" parent="-pnCLeIIcDpPo0bB913H-1" vertex="1">
          <mxGeometry x="859.5" y="380" width="120" height="60" as="geometry" />
        </mxCell>
        <mxCell id="XKnFLWoLnrM2bNzfTnCc-1" value="&lt;div align=&quot;left&quot;&gt;&lt;ul&gt;&lt;li&gt;The infected domain must be&lt;br&gt;cut off from any other &lt;br&gt;environment&lt;/li&gt;&lt;/ul&gt;&lt;/div&gt;" style="text;html=1;resizable=0;autosize=1;align=center;verticalAlign=middle;points=[];fillColor=none;strokeColor=none;rounded=0;" parent="-pnCLeIIcDpPo0bB913H-1" vertex="1">
          <mxGeometry x="824.45" y="441.25" width="210" height="70" as="geometry" />
        </mxCell>
        <mxCell id="XKnFLWoLnrM2bNzfTnCc-2" value="RA9" style="whiteSpace=wrap;html=1;aspect=fixed;fillColor=#E6E6E6;rotation=0;" parent="-pnCLeIIcDpPo0bB913H-1" vertex="1">
          <mxGeometry x="859.5" y="350" width="30" height="30" as="geometry" />
        </mxCell>
        <mxCell id="OpmPpiviZIUaZ2mTxFx--0" style="edgeStyle=orthogonalEdgeStyle;rounded=0;orthogonalLoop=1;jettySize=auto;html=1;exitX=1;exitY=0.5;exitDx=0;exitDy=0;entryX=0;entryY=1;entryDx=0;entryDy=0;" parent="-pnCLeIIcDpPo0bB913H-1" source="XKnFLWoLnrM2bNzfTnCc-5" target="VWcWIzXyvp8xfv4rWOoz-2" edge="1">
          <mxGeometry relative="1" as="geometry">
            <Array as="points">
              <mxPoint x="650" y="411" />
              <mxPoint x="650" y="258" />
            </Array>
          </mxGeometry>
        </mxCell>
        <mxCell id="XKnFLWoLnrM2bNzfTnCc-5" value="Contain &amp;amp; Eradicate&lt;br&gt;found IOC/IOA" style="whiteSpace=wrap;html=1;" parent="-pnCLeIIcDpPo0bB913H-1" vertex="1">
          <mxGeometry x="505" y="381.25" width="120" height="60" as="geometry" />
        </mxCell>
        <mxCell id="XKnFLWoLnrM2bNzfTnCc-6" value="&lt;div align=&quot;left&quot;&gt;&lt;ul&gt;&lt;li&gt;In case of a live actor we&lt;br&gt;have need to Contain &amp;amp;&lt;br&gt;Eradicate&amp;nbsp;as soon as we&amp;nbsp;&lt;br&gt;discover new IOC/IOA&lt;/li&gt;&lt;/ul&gt;&lt;/div&gt;" style="text;html=1;resizable=0;autosize=1;align=center;verticalAlign=middle;points=[];fillColor=none;strokeColor=none;rounded=0;" parent="-pnCLeIIcDpPo0bB913H-1" vertex="1">
          <mxGeometry x="455" y="441.25" width="190" height="90" as="geometry" />
        </mxCell>
        <mxCell id="XKnFLWoLnrM2bNzfTnCc-7" value="RA5" style="whiteSpace=wrap;html=1;aspect=fixed;fillColor=#E6E6E6;rotation=0;" parent="-pnCLeIIcDpPo0bB913H-1" vertex="1">
          <mxGeometry x="505" y="351.25" width="30" height="30" as="geometry" />
        </mxCell>
        <mxCell id="OpmPpiviZIUaZ2mTxFx--1" style="edgeStyle=orthogonalEdgeStyle;rounded=0;orthogonalLoop=1;jettySize=auto;html=1;exitX=1;exitY=0.5;exitDx=0;exitDy=0;entryX=0;entryY=1;entryDx=0;entryDy=0;" parent="-pnCLeIIcDpPo0bB913H-1" source="XKnFLWoLnrM2bNzfTnCc-10" target="VWcWIzXyvp8xfv4rWOoz-10" edge="1">
          <mxGeometry relative="1" as="geometry">
            <Array as="points">
              <mxPoint x="820" y="411" />
              <mxPoint x="820" y="258" />
            </Array>
          </mxGeometry>
        </mxCell>
        <mxCell id="XKnFLWoLnrM2bNzfTnCc-10" value="Ensure Backups&lt;br&gt;Are Protected" style="whiteSpace=wrap;html=1;" parent="-pnCLeIIcDpPo0bB913H-1" vertex="1">
          <mxGeometry x="680" y="381.25" width="120" height="60" as="geometry" />
        </mxCell>
        <mxCell id="XKnFLWoLnrM2bNzfTnCc-11" value="&lt;div align=&quot;left&quot;&gt;&lt;ul&gt;&lt;li&gt;&lt;span style=&quot;text-align: center&quot;&gt;Disable future backups&lt;/span&gt;&lt;/li&gt;&lt;ul&gt;&lt;li&gt;Disable backup interface&lt;/li&gt;&lt;li&gt;Stop backup scheduling&lt;/li&gt;&lt;/ul&gt;&lt;li&gt;Make an offline copy of the backups&lt;/li&gt;&lt;/ul&gt;&lt;/div&gt;" style="text;html=1;resizable=0;autosize=1;align=center;verticalAlign=middle;points=[];fillColor=none;strokeColor=none;rounded=0;" parent="-pnCLeIIcDpPo0bB913H-1" vertex="1">
          <mxGeometry x="615" y="441.25" width="250" height="90" as="geometry" />
        </mxCell>
        <mxCell id="XKnFLWoLnrM2bNzfTnCc-12" value="RA7" style="whiteSpace=wrap;html=1;aspect=fixed;fillColor=#E6E6E6;rotation=0;" parent="-pnCLeIIcDpPo0bB913H-1" vertex="1">
          <mxGeometry x="680" y="351.25" width="30" height="30" as="geometry" />
        </mxCell>
        <mxCell id="XKnFLWoLnrM2bNzfTnCc-14" value="&lt;div style=&quot;font-size: 12px&quot;&gt;RA2&lt;/div&gt;" style="whiteSpace=wrap;html=1;aspect=fixed;fillColor=#E6E6E6;rotation=319;fontSize=12;" parent="-pnCLeIIcDpPo0bB913H-1" vertex="1">
          <mxGeometry x="327.75" y="175" width="30" height="30" as="geometry" />
        </mxCell>
        <mxCell id="XKnFLWoLnrM2bNzfTnCc-17" style="edgeStyle=orthogonalEdgeStyle;rounded=0;orthogonalLoop=1;jettySize=auto;html=1;entryX=0;entryY=0.5;entryDx=0;entryDy=0;" parent="-pnCLeIIcDpPo0bB913H-1" source="XKnFLWoLnrM2bNzfTnCc-15" target="-pnCLeIIcDpPo0bB913H-60" edge="1">
          <mxGeometry relative="1" as="geometry" />
        </mxCell>
        <mxCell id="XKnFLWoLnrM2bNzfTnCc-18" value="No" style="edgeLabel;html=1;align=center;verticalAlign=middle;resizable=0;points=[];" parent="XKnFLWoLnrM2bNzfTnCc-17" vertex="1" connectable="0">
          <mxGeometry x="-0.1988" y="-2" relative="1" as="geometry">
            <mxPoint y="-2" as="offset" />
          </mxGeometry>
        </mxCell>
        <mxCell id="XKnFLWoLnrM2bNzfTnCc-29" value="" style="edgeStyle=orthogonalEdgeStyle;rounded=0;orthogonalLoop=1;jettySize=auto;html=1;" parent="-pnCLeIIcDpPo0bB913H-1" source="XKnFLWoLnrM2bNzfTnCc-15" target="XKnFLWoLnrM2bNzfTnCc-28" edge="1">
          <mxGeometry relative="1" as="geometry" />
        </mxCell>
        <mxCell id="cT68E0Syv4OXk3kiCojA-14" value="Yes" style="edgeLabel;html=1;align=center;verticalAlign=middle;resizable=0;points=[];" parent="XKnFLWoLnrM2bNzfTnCc-29" vertex="1" connectable="0">
          <mxGeometry x="0.244" y="-1" relative="1" as="geometry">
            <mxPoint x="-1.05" y="5.960000000000001" as="offset" />
          </mxGeometry>
        </mxCell>
        <mxCell id="XKnFLWoLnrM2bNzfTnCc-15" value="&lt;div&gt;Different than&lt;br&gt;Ransonware?&lt;/div&gt;" style="rhombus;whiteSpace=wrap;html=1;shadow=0;fontFamily=Helvetica;fontSize=12;align=center;strokeWidth=1;spacing=6;spacingTop=-4;" parent="-pnCLeIIcDpPo0bB913H-1" vertex="1">
          <mxGeometry x="319.75" y="175" width="130" height="110" as="geometry" />
        </mxCell>
        <mxCell id="XKnFLWoLnrM2bNzfTnCc-26" value="&lt;div style=&quot;font-size: 12px&quot;&gt;RA3&lt;/div&gt;" style="whiteSpace=wrap;html=1;aspect=fixed;fillColor=#E6E6E6;rotation=319;fontSize=12;" parent="-pnCLeIIcDpPo0bB913H-1" vertex="1">
          <mxGeometry x="327.75" y="30" width="30" height="30" as="geometry" />
        </mxCell>
        <mxCell id="XKnFLWoLnrM2bNzfTnCc-31" value="" style="edgeStyle=orthogonalEdgeStyle;rounded=0;orthogonalLoop=1;jettySize=auto;html=1;" parent="-pnCLeIIcDpPo0bB913H-1" source="XKnFLWoLnrM2bNzfTnCc-28" target="XKnFLWoLnrM2bNzfTnCc-30" edge="1">
          <mxGeometry relative="1" as="geometry" />
        </mxCell>
        <mxCell id="cT68E0Syv4OXk3kiCojA-15" value="Yes" style="edgeLabel;html=1;align=center;verticalAlign=middle;resizable=0;points=[];" parent="XKnFLWoLnrM2bNzfTnCc-31" vertex="1" connectable="0">
          <mxGeometry x="-0.3792" y="3" relative="1" as="geometry">
            <mxPoint as="offset" />
          </mxGeometry>
        </mxCell>
        <mxCell id="cT68E0Syv4OXk3kiCojA-16" style="edgeStyle=orthogonalEdgeStyle;rounded=0;orthogonalLoop=1;jettySize=auto;html=1;exitX=0.5;exitY=0;exitDx=0;exitDy=0;entryX=0;entryY=0.5;entryDx=0;entryDy=0;" parent="-pnCLeIIcDpPo0bB913H-1" source="XKnFLWoLnrM2bNzfTnCc-28" target="cT68E0Syv4OXk3kiCojA-17" edge="1">
          <mxGeometry relative="1" as="geometry">
            <mxPoint x="800" y="40" as="targetPoint" />
            <Array as="points">
              <mxPoint x="385" y="20" />
              <mxPoint x="630" y="20" />
              <mxPoint x="630" y="40" />
            </Array>
          </mxGeometry>
        </mxCell>
        <mxCell id="cT68E0Syv4OXk3kiCojA-18" value="No" style="edgeLabel;html=1;align=center;verticalAlign=middle;resizable=0;points=[];" parent="cT68E0Syv4OXk3kiCojA-16" vertex="1" connectable="0">
          <mxGeometry x="-0.7372" y="2" relative="1" as="geometry">
            <mxPoint as="offset" />
          </mxGeometry>
        </mxCell>
        <mxCell id="XKnFLWoLnrM2bNzfTnCc-28" value="&lt;div&gt;Is it DDoS&lt;/div&gt;" style="rhombus;whiteSpace=wrap;html=1;shadow=0;fontFamily=Helvetica;fontSize=12;align=center;strokeWidth=1;spacing=6;spacingTop=-4;" parent="-pnCLeIIcDpPo0bB913H-1" vertex="1">
          <mxGeometry x="319.75" y="30" width="130" height="110" as="geometry" />
        </mxCell>
        <mxCell id="XKnFLWoLnrM2bNzfTnCc-30" value="DDoS&lt;br&gt;Playbook&lt;br&gt;&lt;div&gt;&lt;/div&gt;" style="shape=step;perimeter=stepPerimeter;whiteSpace=wrap;html=1;fixedSize=1;" parent="-pnCLeIIcDpPo0bB913H-1" vertex="1">
          <mxGeometry x="549.75" y="65" width="120" height="40" as="geometry" />
        </mxCell>
        <mxCell id="jSoJP54lODc3JMXViZ1M-4" value="No" style="edgeStyle=orthogonalEdgeStyle;rounded=0;orthogonalLoop=1;jettySize=auto;html=1;exitX=0;exitY=0.5;exitDx=0;exitDy=0;entryX=1;entryY=0.5;entryDx=0;entryDy=0;" parent="-pnCLeIIcDpPo0bB913H-1" source="IdqfU_uJPry6eT7akySN-0" target="jSoJP54lODc3JMXViZ1M-1" edge="1">
          <mxGeometry relative="1" as="geometry" />
        </mxCell>
        <mxCell id="cT68E0Syv4OXk3kiCojA-9" style="edgeStyle=orthogonalEdgeStyle;rounded=0;orthogonalLoop=1;jettySize=auto;html=1;exitX=0.5;exitY=1;exitDx=0;exitDy=0;entryX=0;entryY=0.5;entryDx=0;entryDy=0;" parent="-pnCLeIIcDpPo0bB913H-1" source="IdqfU_uJPry6eT7akySN-0" target="IdqfU_uJPry6eT7akySN-2" edge="1">
          <mxGeometry relative="1" as="geometry">
            <Array as="points">
              <mxPoint x="385" y="930" />
            </Array>
          </mxGeometry>
        </mxCell>
        <mxCell id="cT68E0Syv4OXk3kiCojA-11" value="Yes" style="edgeLabel;html=1;align=center;verticalAlign=middle;resizable=0;points=[];" parent="cT68E0Syv4OXk3kiCojA-9" vertex="1" connectable="0">
          <mxGeometry x="-0.907" y="4" relative="1" as="geometry">
            <mxPoint x="-4.01" as="offset" />
          </mxGeometry>
        </mxCell>
        <mxCell id="IdqfU_uJPry6eT7akySN-0" value="&lt;div&gt;Data Exfiltrated?&lt;/div&gt;" style="rhombus;whiteSpace=wrap;html=1;shadow=0;fontFamily=Helvetica;fontSize=12;align=center;strokeWidth=1;spacing=6;spacingTop=-4;" parent="-pnCLeIIcDpPo0bB913H-1" vertex="1">
          <mxGeometry x="319.45" y="595" width="130" height="110" as="geometry" />
        </mxCell>
        <mxCell id="IdqfU_uJPry6eT7akySN-2" value="Data Loss&lt;br&gt;Playbook&lt;br&gt;&lt;div&gt;&lt;/div&gt;" style="shape=step;perimeter=stepPerimeter;whiteSpace=wrap;html=1;fixedSize=1;" parent="-pnCLeIIcDpPo0bB913H-1" vertex="1">
          <mxGeometry x="639.45" y="910" width="120" height="40" as="geometry" />
        </mxCell>
        <mxCell id="jSoJP54lODc3JMXViZ1M-0" value="&lt;div&gt;&lt;font style=&quot;font-size: 10px&quot;&gt;RA15&lt;/font&gt;&lt;/div&gt;" style="whiteSpace=wrap;html=1;aspect=fixed;fillColor=#E6E6E6;rotation=319;fontSize=12;" parent="-pnCLeIIcDpPo0bB913H-1" vertex="1">
          <mxGeometry x="139.45" y="595" width="30" height="30" as="geometry" />
        </mxCell>
        <mxCell id="jSoJP54lODc3JMXViZ1M-5" value="Yes" style="edgeStyle=orthogonalEdgeStyle;rounded=0;orthogonalLoop=1;jettySize=auto;html=1;exitX=0.5;exitY=1;exitDx=0;exitDy=0;entryX=0.5;entryY=0;entryDx=0;entryDy=0;" parent="-pnCLeIIcDpPo0bB913H-1" source="jSoJP54lODc3JMXViZ1M-1" target="-pnCLeIIcDpPo0bB913H-34" edge="1">
          <mxGeometry relative="1" as="geometry" />
        </mxCell>
        <mxCell id="XRhd1WPJ6X_bpOZSjAlJ-3" style="edgeStyle=orthogonalEdgeStyle;rounded=0;orthogonalLoop=1;jettySize=auto;html=1;entryX=1;entryY=0.5;entryDx=0;entryDy=0;" parent="-pnCLeIIcDpPo0bB913H-1" source="jSoJP54lODc3JMXViZ1M-1" target="XRhd1WPJ6X_bpOZSjAlJ-0" edge="1">
          <mxGeometry relative="1" as="geometry">
            <Array as="points">
              <mxPoint x="195" y="570" />
              <mxPoint x="470" y="570" />
              <mxPoint x="470" y="409" />
            </Array>
          </mxGeometry>
        </mxCell>
        <mxCell id="XRhd1WPJ6X_bpOZSjAlJ-4" value="No" style="edgeLabel;html=1;align=center;verticalAlign=middle;resizable=0;points=[];" parent="XRhd1WPJ6X_bpOZSjAlJ-3" vertex="1" connectable="0">
          <mxGeometry x="-0.8803" y="1" relative="1" as="geometry">
            <mxPoint y="14" as="offset" />
          </mxGeometry>
        </mxCell>
        <mxCell id="jSoJP54lODc3JMXViZ1M-1" value="&lt;div&gt;All Affected &lt;br&gt;&lt;/div&gt;&lt;div&gt;Enpoints and Data&lt;br&gt;&lt;/div&gt;&lt;div&gt;ID&#39;ed&lt;/div&gt;" style="rhombus;whiteSpace=wrap;html=1;shadow=0;fontFamily=Helvetica;fontSize=12;align=center;strokeWidth=1;spacing=6;spacingTop=-4;" parent="-pnCLeIIcDpPo0bB913H-1" vertex="1">
          <mxGeometry x="130" y="595" width="130" height="110" as="geometry" />
        </mxCell>
        <mxCell id="jSoJP54lODc3JMXViZ1M-2" value="" style="edgeStyle=orthogonalEdgeStyle;rounded=0;orthogonalLoop=1;jettySize=auto;html=1;dashed=1;entryX=1;entryY=1;entryDx=0;entryDy=0;exitX=0.5;exitY=1;exitDx=0;exitDy=0;" parent="-pnCLeIIcDpPo0bB913H-1" source="IdqfU_uJPry6eT7akySN-2" target="jSoJP54lODc3JMXViZ1M-1" edge="1">
          <mxGeometry relative="1" as="geometry">
            <mxPoint x="619.45" y="802" as="sourcePoint" />
            <mxPoint x="409.45" y="942" as="targetPoint" />
            <Array as="points">
              <mxPoint x="700" y="970" />
              <mxPoint x="300" y="970" />
              <mxPoint x="300" y="678" />
            </Array>
          </mxGeometry>
        </mxCell>
        <mxCell id="XRhd1WPJ6X_bpOZSjAlJ-5" style="edgeStyle=orthogonalEdgeStyle;rounded=0;orthogonalLoop=1;jettySize=auto;html=1;" parent="-pnCLeIIcDpPo0bB913H-1" source="XRhd1WPJ6X_bpOZSjAlJ-0" target="-pnCLeIIcDpPo0bB913H-25" edge="1">
          <mxGeometry relative="1" as="geometry" />
        </mxCell>
        <mxCell id="XRhd1WPJ6X_bpOZSjAlJ-0" value="Update Scope" style="shape=document;whiteSpace=wrap;html=1;boundedLbl=1;rounded=0;sketch=0;" parent="-pnCLeIIcDpPo0bB913H-1" vertex="1">
          <mxGeometry x="330" y="379" width="120" height="60" as="geometry" />
        </mxCell>
        <mxCell id="XRhd1WPJ6X_bpOZSjAlJ-1" value="&lt;div&gt;&lt;font style=&quot;font-size: 12px&quot;&gt;U&lt;span style=&quot;left: 934.675px ; top: 435.807px ; font-family: sans-serif ; transform: scalex(1.00873)&quot;&gt;pdate lists of affected&lt;br&gt;&lt;/span&gt;&lt;/font&gt;&lt;/div&gt;&lt;div&gt;&lt;ul&gt;&lt;li&gt;&lt;font style=&quot;font-size: 12px&quot;&gt;&lt;span style=&quot;left: 961.55px ; top: 452.607px ; font-family: sans-serif ; transform: scalex(1.00896)&quot;&gt;&lt;/span&gt;&lt;span style=&quot;left: 961.55px ; top: 467.407px ; font-family: sans-serif ; transform: scalex(1.00967)&quot;&gt;Data&lt;/span&gt;&lt;/font&gt;&lt;/li&gt;&lt;li&gt;&lt;span style=&quot;left: 961.55px ; top: 467.407px ; font-family: sans-serif ; transform: scalex(1.00967)&quot;&gt;&lt;font style=&quot;font-size: 12px&quot;&gt;Endpoints&lt;/font&gt;&lt;/span&gt;&lt;/li&gt;&lt;li&gt;&lt;span style=&quot;left: 961.55px ; top: 467.407px ; font-family: sans-serif ; transform: scalex(1.00967)&quot;&gt;&lt;font style=&quot;font-size: 12px&quot;&gt;Company Entities&lt;br&gt;&lt;/font&gt;&lt;/span&gt;&lt;/li&gt;&lt;li&gt;&lt;font style=&quot;font-size: 12px&quot;&gt;&lt;span style=&quot;left: 943.409px ; top: 484.207px ; font-family: sans-serif&quot;&gt;&lt;/span&gt;&lt;span style=&quot;left: 961.55px ; top: 484.207px ; font-family: sans-serif ; transform: scalex(1.00976)&quot;&gt;Clients&lt;/span&gt;&lt;/font&gt;&lt;/li&gt;&lt;/ul&gt;&lt;/div&gt;" style="text;whiteSpace=wrap;html=1;" parent="-pnCLeIIcDpPo0bB913H-1" vertex="1">
          <mxGeometry x="310" y="440" width="240" height="110" as="geometry" />
        </mxCell>
        <mxCell id="XRhd1WPJ6X_bpOZSjAlJ-2" value="&lt;font style=&quot;font-size: 10px&quot;&gt;RA16&lt;/font&gt;" style="whiteSpace=wrap;html=1;aspect=fixed;fillColor=#E6E6E6;rotation=0;" parent="-pnCLeIIcDpPo0bB913H-1" vertex="1">
          <mxGeometry x="330" y="349" width="30" height="30" as="geometry" />
        </mxCell>
        <mxCell id="cT68E0Syv4OXk3kiCojA-4" style="edgeStyle=orthogonalEdgeStyle;rounded=0;orthogonalLoop=1;jettySize=auto;html=1;entryX=1;entryY=0.5;entryDx=0;entryDy=0;" parent="-pnCLeIIcDpPo0bB913H-1" source="cT68E0Syv4OXk3kiCojA-1" target="IdqfU_uJPry6eT7akySN-0" edge="1">
          <mxGeometry relative="1" as="geometry" />
        </mxCell>
        <mxCell id="cT68E0Syv4OXk3kiCojA-6" value="No" style="edgeLabel;html=1;align=center;verticalAlign=middle;resizable=0;points=[];" parent="cT68E0Syv4OXk3kiCojA-4" vertex="1" connectable="0">
          <mxGeometry x="-0.0999" y="-1" relative="1" as="geometry">
            <mxPoint as="offset" />
          </mxGeometry>
        </mxCell>
        <mxCell id="cT68E0Syv4OXk3kiCojA-10" style="edgeStyle=orthogonalEdgeStyle;rounded=0;orthogonalLoop=1;jettySize=auto;html=1;exitX=0.5;exitY=1;exitDx=0;exitDy=0;entryX=0.5;entryY=0;entryDx=0;entryDy=0;" parent="-pnCLeIIcDpPo0bB913H-1" source="cT68E0Syv4OXk3kiCojA-1" target="cT68E0Syv4OXk3kiCojA-7" edge="1">
          <mxGeometry relative="1" as="geometry" />
        </mxCell>
        <mxCell id="cT68E0Syv4OXk3kiCojA-12" value="Yes" style="edgeLabel;html=1;align=center;verticalAlign=middle;resizable=0;points=[];" parent="cT68E0Syv4OXk3kiCojA-10" vertex="1" connectable="0">
          <mxGeometry x="-0.604" relative="1" as="geometry">
            <mxPoint as="offset" />
          </mxGeometry>
        </mxCell>
        <mxCell id="cT68E0Syv4OXk3kiCojA-1" value="&lt;div&gt;Do We Pay&lt;br&gt;The Ransom?&lt;/div&gt;" style="rhombus;whiteSpace=wrap;html=1;shadow=0;fontFamily=Helvetica;fontSize=12;align=center;strokeWidth=1;spacing=6;spacingTop=-4;" parent="-pnCLeIIcDpPo0bB913H-1" vertex="1">
          <mxGeometry x="505" y="595" width="130" height="110" as="geometry" />
        </mxCell>
        <mxCell id="OpmPpiviZIUaZ2mTxFx--8" style="edgeStyle=orthogonalEdgeStyle;rounded=0;orthogonalLoop=1;jettySize=auto;html=1;exitX=0;exitY=0.5;exitDx=0;exitDy=0;entryX=1;entryY=1;entryDx=0;entryDy=0;" parent="-pnCLeIIcDpPo0bB913H-1" source="cT68E0Syv4OXk3kiCojA-7" target="IdqfU_uJPry6eT7akySN-0" edge="1">
          <mxGeometry relative="1" as="geometry">
            <Array as="points">
              <mxPoint x="480" y="811" />
              <mxPoint x="480" y="678" />
            </Array>
          </mxGeometry>
        </mxCell>
        <mxCell id="cT68E0Syv4OXk3kiCojA-7" value="Make Payment&lt;br&gt;Arrangements" style="whiteSpace=wrap;html=1;" parent="-pnCLeIIcDpPo0bB913H-1" vertex="1">
          <mxGeometry x="510" y="780.75" width="120" height="60" as="geometry" />
        </mxCell>
        <mxCell id="cT68E0Syv4OXk3kiCojA-8" value="&lt;font style=&quot;font-size: 10px&quot;&gt;RA13&lt;/font&gt;" style="whiteSpace=wrap;html=1;aspect=fixed;fillColor=#E6E6E6;rotation=0;" parent="-pnCLeIIcDpPo0bB913H-1" vertex="1">
          <mxGeometry x="510" y="750.75" width="30" height="30" as="geometry" />
        </mxCell>
        <mxCell id="cT68E0Syv4OXk3kiCojA-13" value="&lt;div align=&quot;left&quot;&gt;&lt;ul&gt;&lt;li&gt;Contact Insurer to know if they &lt;br&gt;will reimburse&lt;/li&gt;&lt;li&gt;Negotiate the price with TA&lt;/li&gt;&lt;li&gt;Get Bitcoin&lt;/li&gt;&lt;/ul&gt;&lt;/div&gt;" style="text;html=1;resizable=0;autosize=1;align=center;verticalAlign=middle;points=[];fillColor=none;strokeColor=none;rounded=0;" parent="-pnCLeIIcDpPo0bB913H-1" vertex="1">
          <mxGeometry x="480.00000000000006" y="840" width="220" height="90" as="geometry" />
        </mxCell>
        <mxCell id="cT68E0Syv4OXk3kiCojA-17" value="Critical&lt;br&gt;Playbook&lt;br&gt;&lt;div&gt;&lt;/div&gt;" style="shape=step;perimeter=stepPerimeter;whiteSpace=wrap;html=1;fixedSize=1;" parent="-pnCLeIIcDpPo0bB913H-1" vertex="1">
          <mxGeometry x="734.45" y="20" width="120" height="40" as="geometry" />
        </mxCell>
        <mxCell id="cT68E0Syv4OXk3kiCojA-19" value="&lt;div&gt;&lt;font style=&quot;font-size: 10px&quot;&gt;RA14&lt;/font&gt;&lt;/div&gt;" style="whiteSpace=wrap;html=1;aspect=fixed;fillColor=#E6E6E6;rotation=319;fontSize=12;" parent="-pnCLeIIcDpPo0bB913H-1" vertex="1">
          <mxGeometry x="327.75" y="595" width="30" height="30" as="geometry" />
        </mxCell>
        <mxCell id="cT68E0Syv4OXk3kiCojA-20" value="&lt;div&gt;&lt;font style=&quot;font-size: 10px&quot;&gt;RA12&lt;/font&gt;&lt;/div&gt;" style="whiteSpace=wrap;html=1;aspect=fixed;fillColor=#E6E6E6;rotation=319;fontSize=12;" parent="-pnCLeIIcDpPo0bB913H-1" vertex="1">
          <mxGeometry x="519.45" y="590" width="30" height="30" as="geometry" />
        </mxCell>
        <mxCell id="OpmPpiviZIUaZ2mTxFx--7" value="" style="edgeStyle=orthogonalEdgeStyle;rounded=0;orthogonalLoop=1;jettySize=auto;html=1;dashed=1;exitX=0.5;exitY=1;exitDx=0;exitDy=0;" parent="-pnCLeIIcDpPo0bB913H-1" source="cT68E0Syv4OXk3kiCojA-17" target="-pnCLeIIcDpPo0bB913H-60" edge="1">
          <mxGeometry relative="1" as="geometry">
            <mxPoint x="1032.9699999999998" y="159.75" as="sourcePoint" />
            <mxPoint x="723.52" y="20" as="targetPoint" />
            <Array as="points">
              <mxPoint x="790" y="60" />
              <mxPoint x="790" y="130" />
              <mxPoint x="565" y="130" />
            </Array>
          </mxGeometry>
        </mxCell>
      </root>
    </mxGraphModel>
  </diagram>
  <diagram id="j8B70n4qGnBpHLWdDYAs" name="Contain/Eradicate">
    <mxGraphModel dx="1186" dy="767" grid="1" gridSize="10" guides="1" tooltips="1" connect="1" arrows="1" fold="1" page="1" pageScale="1" pageWidth="1100" pageHeight="850" math="0" shadow="0">
      <root>
        <mxCell id="KZP0MnMaffbDs4WpBaWC-0" />
        <mxCell id="KZP0MnMaffbDs4WpBaWC-1" parent="KZP0MnMaffbDs4WpBaWC-0" />
        <mxCell id="KZP0MnMaffbDs4WpBaWC-2" value="&lt;div&gt;RC9&lt;/div&gt;" style="whiteSpace=wrap;html=1;aspect=fixed;fillColor=#E6E6E6;rotation=319;" parent="KZP0MnMaffbDs4WpBaWC-1" vertex="1">
          <mxGeometry x="330" y="354.5" width="30" height="30" as="geometry" />
        </mxCell>
        <mxCell id="KZP0MnMaffbDs4WpBaWC-3" value="&lt;div&gt;RC8&lt;/div&gt;" style="whiteSpace=wrap;html=1;aspect=fixed;fillColor=#E6E6E6;rotation=319;" parent="KZP0MnMaffbDs4WpBaWC-1" vertex="1">
          <mxGeometry x="515" y="354.5" width="30" height="30" as="geometry" />
        </mxCell>
        <mxCell id="KZP0MnMaffbDs4WpBaWC-4" value="&lt;div&gt;RC5&lt;/div&gt;" style="whiteSpace=wrap;html=1;aspect=fixed;fillColor=#E6E6E6;rotation=319;" parent="KZP0MnMaffbDs4WpBaWC-1" vertex="1">
          <mxGeometry x="925" y="145" width="30" height="30" as="geometry" />
        </mxCell>
        <mxCell id="KZP0MnMaffbDs4WpBaWC-5" value="&lt;h1&gt;Ransom - Contain / Eradicate&lt;br&gt;&lt;/h1&gt;" style="text;html=1;strokeColor=none;fillColor=none;spacing=5;spacingTop=-20;whiteSpace=wrap;overflow=hidden;rounded=0;" parent="KZP0MnMaffbDs4WpBaWC-1" vertex="1">
          <mxGeometry x="10" y="10" width="370" height="40" as="geometry" />
        </mxCell>
        <mxCell id="KZP0MnMaffbDs4WpBaWC-6" value="&lt;div&gt;Previous&lt;/div&gt;(Analyze)" style="shape=step;perimeter=stepPerimeter;whiteSpace=wrap;html=1;fixedSize=1;" parent="KZP0MnMaffbDs4WpBaWC-1" vertex="1">
          <mxGeometry x="24" y="60" width="120" height="40" as="geometry" />
        </mxCell>
        <mxCell id="KZP0MnMaffbDs4WpBaWC-7" value="" style="edgeStyle=orthogonalEdgeStyle;rounded=0;orthogonalLoop=1;jettySize=auto;html=1;exitX=1;exitY=0.5;exitDx=0;exitDy=0;" parent="KZP0MnMaffbDs4WpBaWC-1" source="KZP0MnMaffbDs4WpBaWC-9" edge="1">
          <mxGeometry relative="1" as="geometry">
            <mxPoint x="254" y="205" as="sourcePoint" />
            <mxPoint x="328" y="205" as="targetPoint" />
          </mxGeometry>
        </mxCell>
        <mxCell id="KZP0MnMaffbDs4WpBaWC-8" value="" style="endArrow=classic;html=1;entryX=0.5;entryY=0;entryDx=0;entryDy=0;rounded=0;exitX=1;exitY=0.5;exitDx=0;exitDy=0;" parent="KZP0MnMaffbDs4WpBaWC-1" source="KZP0MnMaffbDs4WpBaWC-6" target="KZP0MnMaffbDs4WpBaWC-9" edge="1">
          <mxGeometry width="50" height="50" relative="1" as="geometry">
            <mxPoint x="170" y="80" as="sourcePoint" />
            <mxPoint x="160" y="110" as="targetPoint" />
            <Array as="points">
              <mxPoint x="204" y="80" />
            </Array>
          </mxGeometry>
        </mxCell>
        <mxCell id="KZP0MnMaffbDs4WpBaWC-9" value="Block&lt;br&gt;System to Systems Communications" style="whiteSpace=wrap;html=1;" parent="KZP0MnMaffbDs4WpBaWC-1" vertex="1">
          <mxGeometry x="144" y="175" width="120" height="60" as="geometry" />
        </mxCell>
        <mxCell id="l-yxv-P_o5mp2lQZjK0v-19" style="edgeStyle=orthogonalEdgeStyle;rounded=0;orthogonalLoop=1;jettySize=auto;html=1;exitX=1;exitY=0.5;exitDx=0;exitDy=0;entryX=0;entryY=0.5;entryDx=0;entryDy=0;" parent="KZP0MnMaffbDs4WpBaWC-1" source="KZP0MnMaffbDs4WpBaWC-11" target="i3tzpPW47tVzorh1bBFK-0" edge="1">
          <mxGeometry relative="1" as="geometry" />
        </mxCell>
        <mxCell id="KZP0MnMaffbDs4WpBaWC-11" value="Stop Backups" style="whiteSpace=wrap;html=1;" parent="KZP0MnMaffbDs4WpBaWC-1" vertex="1">
          <mxGeometry x="330" y="175" width="120" height="60" as="geometry" />
        </mxCell>
        <mxCell id="l-yxv-P_o5mp2lQZjK0v-11" style="edgeStyle=orthogonalEdgeStyle;rounded=0;orthogonalLoop=1;jettySize=auto;html=1;entryX=0;entryY=0.5;entryDx=0;entryDy=0;" parent="KZP0MnMaffbDs4WpBaWC-1" source="KZP0MnMaffbDs4WpBaWC-13" target="KZP0MnMaffbDs4WpBaWC-14" edge="1">
          <mxGeometry relative="1" as="geometry">
            <Array as="points">
              <mxPoint x="975" y="80" />
            </Array>
          </mxGeometry>
        </mxCell>
        <mxCell id="l-yxv-P_o5mp2lQZjK0v-12" value="Yes" style="edgeLabel;html=1;align=center;verticalAlign=middle;resizable=0;points=[];" parent="l-yxv-P_o5mp2lQZjK0v-11" vertex="1" connectable="0">
          <mxGeometry x="-0.6358" y="-1" relative="1" as="geometry">
            <mxPoint y="1" as="offset" />
          </mxGeometry>
        </mxCell>
        <mxCell id="l-yxv-P_o5mp2lQZjK0v-13" style="edgeStyle=orthogonalEdgeStyle;rounded=0;orthogonalLoop=1;jettySize=auto;html=1;exitX=0.5;exitY=1;exitDx=0;exitDy=0;entryX=0.5;entryY=0;entryDx=0;entryDy=0;" parent="KZP0MnMaffbDs4WpBaWC-1" source="KZP0MnMaffbDs4WpBaWC-13" target="l-yxv-P_o5mp2lQZjK0v-5" edge="1">
          <mxGeometry relative="1" as="geometry" />
        </mxCell>
        <mxCell id="l-yxv-P_o5mp2lQZjK0v-14" value="No" style="edgeLabel;html=1;align=center;verticalAlign=middle;resizable=0;points=[];" parent="l-yxv-P_o5mp2lQZjK0v-13" vertex="1" connectable="0">
          <mxGeometry x="-0.5319" relative="1" as="geometry">
            <mxPoint as="offset" />
          </mxGeometry>
        </mxCell>
        <mxCell id="KZP0MnMaffbDs4WpBaWC-13" value="Malware Infection?" style="rhombus;whiteSpace=wrap;html=1;shadow=0;fontFamily=Helvetica;fontSize=12;align=center;strokeWidth=1;spacing=6;spacingTop=-4;" parent="KZP0MnMaffbDs4WpBaWC-1" vertex="1">
          <mxGeometry x="910" y="150" width="130" height="110" as="geometry" />
        </mxCell>
        <mxCell id="l-yxv-P_o5mp2lQZjK0v-15" style="edgeStyle=orthogonalEdgeStyle;rounded=0;orthogonalLoop=1;jettySize=auto;html=1;exitX=0.5;exitY=1;exitDx=0;exitDy=0;entryX=0.75;entryY=0;entryDx=0;entryDy=0;dashed=1;" parent="KZP0MnMaffbDs4WpBaWC-1" source="KZP0MnMaffbDs4WpBaWC-14" target="l-yxv-P_o5mp2lQZjK0v-5" edge="1">
          <mxGeometry relative="1" as="geometry">
            <Array as="points">
              <mxPoint x="1110" y="280" />
              <mxPoint x="1005" y="280" />
            </Array>
          </mxGeometry>
        </mxCell>
        <mxCell id="KZP0MnMaffbDs4WpBaWC-14" value="&lt;div&gt;Run Malware&lt;/div&gt;&lt;div&gt;Playbook&lt;br&gt;&lt;/div&gt;" style="shape=step;perimeter=stepPerimeter;whiteSpace=wrap;html=1;fixedSize=1;" parent="KZP0MnMaffbDs4WpBaWC-1" vertex="1">
          <mxGeometry x="1050" y="60" width="120" height="40" as="geometry" />
        </mxCell>
        <mxCell id="KZP0MnMaffbDs4WpBaWC-17" style="edgeStyle=orthogonalEdgeStyle;rounded=0;orthogonalLoop=1;jettySize=auto;html=1;exitX=0;exitY=0.5;exitDx=0;exitDy=0;entryX=1;entryY=0.5;entryDx=0;entryDy=0;" parent="KZP0MnMaffbDs4WpBaWC-1" source="KZP0MnMaffbDs4WpBaWC-34" target="KZP0MnMaffbDs4WpBaWC-22" edge="1">
          <mxGeometry relative="1" as="geometry">
            <mxPoint x="715" y="426" as="sourcePoint" />
          </mxGeometry>
        </mxCell>
        <mxCell id="KZP0MnMaffbDs4WpBaWC-18" style="edgeStyle=orthogonalEdgeStyle;rounded=0;orthogonalLoop=1;jettySize=auto;html=1;exitX=0;exitY=0.5;exitDx=0;exitDy=0;entryX=1;entryY=0.5;entryDx=0;entryDy=0;" parent="KZP0MnMaffbDs4WpBaWC-1" source="KZP0MnMaffbDs4WpBaWC-22" target="KZP0MnMaffbDs4WpBaWC-28" edge="1">
          <mxGeometry relative="1" as="geometry" />
        </mxCell>
        <mxCell id="KZP0MnMaffbDs4WpBaWC-19" value="No" style="edgeLabel;html=1;align=center;verticalAlign=middle;resizable=0;points=[];" parent="KZP0MnMaffbDs4WpBaWC-18" vertex="1" connectable="0">
          <mxGeometry x="0.0167" relative="1" as="geometry">
            <mxPoint as="offset" />
          </mxGeometry>
        </mxCell>
        <mxCell id="KZP0MnMaffbDs4WpBaWC-20" style="edgeStyle=orthogonalEdgeStyle;rounded=0;orthogonalLoop=1;jettySize=auto;html=1;exitX=0.5;exitY=1;exitDx=0;exitDy=0;entryX=0;entryY=0.5;entryDx=0;entryDy=0;" parent="KZP0MnMaffbDs4WpBaWC-1" source="KZP0MnMaffbDs4WpBaWC-22" target="KZP0MnMaffbDs4WpBaWC-29" edge="1">
          <mxGeometry relative="1" as="geometry">
            <mxPoint x="520" y="521" as="sourcePoint" />
            <Array as="points">
              <mxPoint x="570" y="601" />
            </Array>
          </mxGeometry>
        </mxCell>
        <mxCell id="KZP0MnMaffbDs4WpBaWC-21" value="Yes" style="edgeLabel;html=1;align=center;verticalAlign=middle;resizable=0;points=[];" parent="KZP0MnMaffbDs4WpBaWC-20" vertex="1" connectable="0">
          <mxGeometry x="-0.8554" y="1" relative="1" as="geometry">
            <mxPoint as="offset" />
          </mxGeometry>
        </mxCell>
        <mxCell id="KZP0MnMaffbDs4WpBaWC-22" value="&lt;div&gt;All Affected &lt;br&gt;&lt;/div&gt;&lt;div&gt;Endpoints &lt;br&gt;&lt;/div&gt;&lt;div&gt;Contained&lt;/div&gt;" style="rhombus;whiteSpace=wrap;html=1;shadow=0;fontFamily=Helvetica;fontSize=12;align=center;strokeWidth=1;spacing=6;spacingTop=-4;" parent="KZP0MnMaffbDs4WpBaWC-1" vertex="1">
          <mxGeometry x="505" y="354.5" width="130" height="110" as="geometry" />
        </mxCell>
        <mxCell id="KZP0MnMaffbDs4WpBaWC-25" style="edgeStyle=orthogonalEdgeStyle;rounded=0;orthogonalLoop=1;jettySize=auto;html=1;exitX=0.5;exitY=1;exitDx=0;exitDy=0;entryX=1;entryY=0.5;entryDx=0;entryDy=0;" parent="KZP0MnMaffbDs4WpBaWC-1" source="KZP0MnMaffbDs4WpBaWC-28" target="KZP0MnMaffbDs4WpBaWC-30" edge="1">
          <mxGeometry relative="1" as="geometry">
            <Array as="points">
              <mxPoint x="385" y="601" />
            </Array>
          </mxGeometry>
        </mxCell>
        <mxCell id="KZP0MnMaffbDs4WpBaWC-26" value="Yes" style="edgeLabel;html=1;align=center;verticalAlign=middle;resizable=0;points=[];" parent="KZP0MnMaffbDs4WpBaWC-25" vertex="1" connectable="0">
          <mxGeometry x="-0.5407" y="1" relative="1" as="geometry">
            <mxPoint as="offset" />
          </mxGeometry>
        </mxCell>
        <mxCell id="wRKFHPyEoHBxFR2AAolj-2" value="" style="edgeStyle=orthogonalEdgeStyle;rounded=0;orthogonalLoop=1;jettySize=auto;html=1;" parent="KZP0MnMaffbDs4WpBaWC-1" source="KZP0MnMaffbDs4WpBaWC-28" target="KZP0MnMaffbDs4WpBaWC-38" edge="1">
          <mxGeometry relative="1" as="geometry" />
        </mxCell>
        <mxCell id="fQbJYWrVtwOLgEcjX9al-0" value="No" style="edgeLabel;html=1;align=center;verticalAlign=middle;resizable=0;points=[];" parent="wRKFHPyEoHBxFR2AAolj-2" vertex="1" connectable="0">
          <mxGeometry x="-0.2212" relative="1" as="geometry">
            <mxPoint as="offset" />
          </mxGeometry>
        </mxCell>
        <mxCell id="KZP0MnMaffbDs4WpBaWC-28" value="&lt;div&gt;New IOC&lt;/div&gt;&lt;div&gt;Discovered&lt;br&gt;&lt;/div&gt;" style="rhombus;whiteSpace=wrap;html=1;shadow=0;fontFamily=Helvetica;fontSize=12;align=center;strokeWidth=1;spacing=6;spacingTop=-4;" parent="KZP0MnMaffbDs4WpBaWC-1" vertex="1">
          <mxGeometry x="320" y="354.5" width="130" height="110" as="geometry" />
        </mxCell>
        <mxCell id="KZP0MnMaffbDs4WpBaWC-29" value="&lt;div&gt;Next&lt;/div&gt;(Recover)" style="shape=step;perimeter=stepPerimeter;whiteSpace=wrap;html=1;fixedSize=1;" parent="KZP0MnMaffbDs4WpBaWC-1" vertex="1">
          <mxGeometry x="960" y="580" width="120" height="40" as="geometry" />
        </mxCell>
        <mxCell id="KZP0MnMaffbDs4WpBaWC-30" value="&lt;div&gt;Previous&lt;/div&gt;(Analyze)" style="shape=step;perimeter=stepPerimeter;whiteSpace=wrap;html=1;fixedSize=1;flipV=0;flipH=1;" parent="KZP0MnMaffbDs4WpBaWC-1" vertex="1">
          <mxGeometry x="75" y="581" width="120" height="40" as="geometry" />
        </mxCell>
        <mxCell id="KZP0MnMaffbDs4WpBaWC-31" value="&lt;div align=&quot;left&quot;&gt;&lt;ul&gt;&lt;li&gt;Local Firewall&lt;/li&gt;&lt;li&gt;AV/EDR Firewall&lt;/li&gt;&lt;li&gt;Contain Host&lt;/li&gt;&lt;li&gt;Shutdown Network Interface&amp;nbsp;&lt;/li&gt;&lt;li&gt;etc.&lt;/li&gt;&lt;/ul&gt;&lt;/div&gt;" style="text;html=1;resizable=0;autosize=1;align=center;verticalAlign=middle;points=[];fillColor=none;strokeColor=none;rounded=0;" parent="KZP0MnMaffbDs4WpBaWC-1" vertex="1">
          <mxGeometry x="110" y="235" width="210" height="100" as="geometry" />
        </mxCell>
        <mxCell id="KZP0MnMaffbDs4WpBaWC-32" value="&lt;br&gt;&lt;div align=&quot;justify&quot;&gt;&lt;br&gt;&lt;/div&gt;" style="text;html=1;resizable=0;autosize=1;align=center;verticalAlign=middle;points=[];fillColor=none;strokeColor=none;rounded=0;" parent="KZP0MnMaffbDs4WpBaWC-1" vertex="1">
          <mxGeometry x="415" y="265" width="20" height="30" as="geometry" />
        </mxCell>
        <mxCell id="KZP0MnMaffbDs4WpBaWC-33" value="&lt;div align=&quot;left&quot;&gt;&lt;ul&gt;&lt;li&gt;Monitor for:&lt;br&gt;&lt;/li&gt;&lt;ul&gt;&lt;li&gt;Lateral Movement&lt;/li&gt;&lt;li&gt;Privilege Escalation&lt;/li&gt;&lt;li&gt;IOCs&lt;br&gt;&lt;/li&gt;&lt;li&gt;etc.&lt;/li&gt;&lt;/ul&gt;&lt;/ul&gt;&lt;/div&gt;" style="text;html=1;resizable=0;autosize=1;align=center;verticalAlign=middle;points=[];fillColor=none;strokeColor=none;rounded=0;" parent="KZP0MnMaffbDs4WpBaWC-1" vertex="1">
          <mxGeometry x="670" y="435" width="200" height="100" as="geometry" />
        </mxCell>
        <mxCell id="KZP0MnMaffbDs4WpBaWC-34" value="&lt;div&gt;&lt;span&gt;Monitor&lt;/span&gt;&lt;br&gt;&lt;/div&gt;&lt;div&gt;&lt;span&gt;Closely&lt;/span&gt;&lt;/div&gt;" style="whiteSpace=wrap;html=1;" parent="KZP0MnMaffbDs4WpBaWC-1" vertex="1">
          <mxGeometry x="710" y="380" width="120" height="60" as="geometry" />
        </mxCell>
        <mxCell id="KZP0MnMaffbDs4WpBaWC-35" value="RC1" style="whiteSpace=wrap;html=1;aspect=fixed;fillColor=#E6E6E6;rotation=0;" parent="KZP0MnMaffbDs4WpBaWC-1" vertex="1">
          <mxGeometry x="144" y="145" width="30" height="30" as="geometry" />
        </mxCell>
        <mxCell id="KZP0MnMaffbDs4WpBaWC-36" value="RC2" style="whiteSpace=wrap;html=1;aspect=fixed;fillColor=#E6E6E6;rotation=0;" parent="KZP0MnMaffbDs4WpBaWC-1" vertex="1">
          <mxGeometry x="330" y="145" width="30" height="30" as="geometry" />
        </mxCell>
        <mxCell id="KZP0MnMaffbDs4WpBaWC-37" value="RC7" style="whiteSpace=wrap;html=1;aspect=fixed;fillColor=#E6E6E6;rotation=0;" parent="KZP0MnMaffbDs4WpBaWC-1" vertex="1">
          <mxGeometry x="710" y="350" width="30" height="30" as="geometry" />
        </mxCell>
        <mxCell id="wRKFHPyEoHBxFR2AAolj-3" style="edgeStyle=orthogonalEdgeStyle;rounded=0;orthogonalLoop=1;jettySize=auto;html=1;exitX=0;exitY=0.5;exitDx=0;exitDy=0;entryX=0;entryY=0.5;entryDx=0;entryDy=0;" parent="KZP0MnMaffbDs4WpBaWC-1" source="KZP0MnMaffbDs4WpBaWC-38" target="KZP0MnMaffbDs4WpBaWC-9" edge="1">
          <mxGeometry relative="1" as="geometry">
            <Array as="points">
              <mxPoint x="100" y="410" />
              <mxPoint x="100" y="205" />
            </Array>
          </mxGeometry>
        </mxCell>
        <mxCell id="KZP0MnMaffbDs4WpBaWC-38" value="Update Scope" style="shape=document;whiteSpace=wrap;html=1;boundedLbl=1;" parent="KZP0MnMaffbDs4WpBaWC-1" vertex="1">
          <mxGeometry x="144" y="370" width="120" height="80" as="geometry" />
        </mxCell>
        <mxCell id="l-yxv-P_o5mp2lQZjK0v-20" style="edgeStyle=orthogonalEdgeStyle;rounded=0;orthogonalLoop=1;jettySize=auto;html=1;entryX=0;entryY=0.5;entryDx=0;entryDy=0;" parent="KZP0MnMaffbDs4WpBaWC-1" source="i3tzpPW47tVzorh1bBFK-0" target="l-yxv-P_o5mp2lQZjK0v-0" edge="1">
          <mxGeometry relative="1" as="geometry" />
        </mxCell>
        <mxCell id="i3tzpPW47tVzorh1bBFK-0" value="Powerdown NON Encrypted Systems" style="whiteSpace=wrap;html=1;" parent="KZP0MnMaffbDs4WpBaWC-1" vertex="1">
          <mxGeometry x="510" y="175" width="120" height="60" as="geometry" />
        </mxCell>
        <mxCell id="i3tzpPW47tVzorh1bBFK-1" value="RC3" style="whiteSpace=wrap;html=1;aspect=fixed;fillColor=#E6E6E6;rotation=0;" parent="KZP0MnMaffbDs4WpBaWC-1" vertex="1">
          <mxGeometry x="510" y="145" width="30" height="30" as="geometry" />
        </mxCell>
        <mxCell id="l-yxv-P_o5mp2lQZjK0v-21" style="edgeStyle=orthogonalEdgeStyle;rounded=0;orthogonalLoop=1;jettySize=auto;html=1;exitX=1;exitY=0.5;exitDx=0;exitDy=0;entryX=0;entryY=0.5;entryDx=0;entryDy=0;" parent="KZP0MnMaffbDs4WpBaWC-1" source="l-yxv-P_o5mp2lQZjK0v-0" target="KZP0MnMaffbDs4WpBaWC-13" edge="1">
          <mxGeometry relative="1" as="geometry" />
        </mxCell>
        <mxCell id="l-yxv-P_o5mp2lQZjK0v-0" value="Disconnect Share Drives" style="whiteSpace=wrap;html=1;align=center;" parent="KZP0MnMaffbDs4WpBaWC-1" vertex="1">
          <mxGeometry x="710" y="175" width="120" height="60" as="geometry" />
        </mxCell>
        <mxCell id="l-yxv-P_o5mp2lQZjK0v-1" value="RC4" style="whiteSpace=wrap;html=1;aspect=fixed;fillColor=#E6E6E6;rotation=0;" parent="KZP0MnMaffbDs4WpBaWC-1" vertex="1">
          <mxGeometry x="710" y="145" width="30" height="30" as="geometry" />
        </mxCell>
        <mxCell id="l-yxv-P_o5mp2lQZjK0v-2" value="&lt;div align=&quot;left&quot;&gt;&lt;ul&gt;&lt;li&gt;Check Status of &lt;br&gt;Snapshots&lt;/li&gt;&lt;/ul&gt;&lt;/div&gt;" style="text;html=1;resizable=0;autosize=1;align=center;verticalAlign=middle;points=[];fillColor=none;strokeColor=none;rounded=0;" parent="KZP0MnMaffbDs4WpBaWC-1" vertex="1">
          <mxGeometry x="300" y="235" width="140" height="60" as="geometry" />
        </mxCell>
        <mxCell id="l-yxv-P_o5mp2lQZjK0v-3" value="&lt;div align=&quot;left&quot;&gt;&lt;ul&gt;&lt;li&gt;If possible powerdown the &lt;br&gt;systems that are not encrypted&lt;/li&gt;&lt;li&gt;Do NOT powerdown encrypted&lt;br&gt;systems as they might not restart&lt;/li&gt;&lt;/ul&gt;&lt;/div&gt;" style="text;html=1;resizable=0;autosize=1;align=center;verticalAlign=middle;points=[];fillColor=none;strokeColor=none;rounded=0;" parent="KZP0MnMaffbDs4WpBaWC-1" vertex="1">
          <mxGeometry x="470" y="235" width="230" height="90" as="geometry" />
        </mxCell>
        <mxCell id="wRKFHPyEoHBxFR2AAolj-0" style="edgeStyle=orthogonalEdgeStyle;rounded=0;orthogonalLoop=1;jettySize=auto;html=1;exitX=0;exitY=0.5;exitDx=0;exitDy=0;" parent="KZP0MnMaffbDs4WpBaWC-1" source="l-yxv-P_o5mp2lQZjK0v-5" edge="1">
          <mxGeometry relative="1" as="geometry">
            <mxPoint x="830" y="410" as="targetPoint" />
          </mxGeometry>
        </mxCell>
        <mxCell id="l-yxv-P_o5mp2lQZjK0v-5" value="Active Directory Clean Up" style="whiteSpace=wrap;html=1;" parent="KZP0MnMaffbDs4WpBaWC-1" vertex="1">
          <mxGeometry x="915" y="380" width="120" height="60" as="geometry" />
        </mxCell>
        <mxCell id="l-yxv-P_o5mp2lQZjK0v-6" value="RC6" style="whiteSpace=wrap;html=1;aspect=fixed;fillColor=#E6E6E6;rotation=0;" parent="KZP0MnMaffbDs4WpBaWC-1" vertex="1">
          <mxGeometry x="915" y="350" width="30" height="30" as="geometry" />
        </mxCell>
        <mxCell id="l-yxv-P_o5mp2lQZjK0v-7" value="&lt;div align=&quot;left&quot;&gt;&lt;ul&gt;&lt;li&gt;Change kbrtgt Password x2&lt;/li&gt;&lt;li&gt;Reset All Privilege Accounts&lt;/li&gt;&lt;/ul&gt;&lt;/div&gt;" style="text;html=1;resizable=0;autosize=1;align=center;verticalAlign=middle;points=[];fillColor=none;strokeColor=none;rounded=0;" parent="KZP0MnMaffbDs4WpBaWC-1" vertex="1">
          <mxGeometry x="890" y="440" width="200" height="60" as="geometry" />
        </mxCell>
        <mxCell id="wRKFHPyEoHBxFR2AAolj-4" value="&lt;div align=&quot;left&quot;&gt;&lt;ul&gt;&lt;li&gt;All shared drive must &lt;br&gt;be disconnected&lt;/li&gt;&lt;/ul&gt;&lt;/div&gt;" style="text;html=1;resizable=0;autosize=1;align=center;verticalAlign=middle;points=[];fillColor=none;strokeColor=none;rounded=0;" parent="KZP0MnMaffbDs4WpBaWC-1" vertex="1">
          <mxGeometry x="685" y="235" width="170" height="60" as="geometry" />
        </mxCell>
        <mxCell id="5jnC53UV2D_umLfoQKFg-0" value="&lt;font style=&quot;font-size: 10px&quot;&gt;RC10&lt;/font&gt;" style="whiteSpace=wrap;html=1;aspect=fixed;fillColor=#E6E6E6;rotation=0;" parent="KZP0MnMaffbDs4WpBaWC-1" vertex="1">
          <mxGeometry x="144" y="340" width="30" height="30" as="geometry" />
        </mxCell>
      </root>
    </mxGraphModel>
  </diagram>
  <diagram id="3DPnKmbbF0t33Z2JX88r" name="Recover">
    <mxGraphModel dx="1186" dy="767" grid="1" gridSize="10" guides="1" tooltips="1" connect="1" arrows="1" fold="1" page="1" pageScale="1" pageWidth="1100" pageHeight="850" math="0" shadow="0">
      <root>
        <mxCell id="uNoOjs_nZpWFQxZ7lYyd-0" />
        <mxCell id="uNoOjs_nZpWFQxZ7lYyd-1" parent="uNoOjs_nZpWFQxZ7lYyd-0" />
        <mxCell id="uNoOjs_nZpWFQxZ7lYyd-2" value="&lt;div&gt;RR6&lt;/div&gt;" style="whiteSpace=wrap;html=1;aspect=fixed;fillColor=#E6E6E6;rotation=319;" parent="uNoOjs_nZpWFQxZ7lYyd-1" vertex="1">
          <mxGeometry x="450" y="405" width="30" height="30" as="geometry" />
        </mxCell>
        <mxCell id="uNoOjs_nZpWFQxZ7lYyd-3" style="edgeStyle=orthogonalEdgeStyle;rounded=0;orthogonalLoop=1;jettySize=auto;html=1;exitX=0.5;exitY=1;exitDx=0;exitDy=0;" parent="uNoOjs_nZpWFQxZ7lYyd-1" edge="1">
          <mxGeometry relative="1" as="geometry">
            <mxPoint x="80" y="100" as="sourcePoint" />
            <mxPoint x="80" y="100" as="targetPoint" />
          </mxGeometry>
        </mxCell>
        <mxCell id="rvAQiAtRHftjp3YUlVIJ-4" style="edgeStyle=orthogonalEdgeStyle;rounded=0;orthogonalLoop=1;jettySize=auto;html=1;exitX=0;exitY=0.5;exitDx=0;exitDy=0;entryX=0;entryY=0.5;entryDx=0;entryDy=0;" parent="uNoOjs_nZpWFQxZ7lYyd-1" source="uNoOjs_nZpWFQxZ7lYyd-4" target="uNoOjs_nZpWFQxZ7lYyd-13" edge="1">
          <mxGeometry relative="1" as="geometry">
            <Array as="points">
              <mxPoint x="200" y="460" />
              <mxPoint x="200" y="180" />
            </Array>
          </mxGeometry>
        </mxCell>
        <mxCell id="rvAQiAtRHftjp3YUlVIJ-5" value="No" style="edgeLabel;html=1;align=center;verticalAlign=middle;resizable=0;points=[];" parent="rvAQiAtRHftjp3YUlVIJ-4" vertex="1" connectable="0">
          <mxGeometry x="-0.84" y="-2" relative="1" as="geometry">
            <mxPoint as="offset" />
          </mxGeometry>
        </mxCell>
        <mxCell id="uNoOjs_nZpWFQxZ7lYyd-4" value="&lt;div&gt;All Affected &lt;br&gt;&lt;/div&gt;&lt;div&gt;Enpoints &lt;br&gt;&lt;/div&gt;&lt;div&gt;ID&#39;ed&lt;/div&gt;" style="rhombus;whiteSpace=wrap;html=1;shadow=0;fontFamily=Helvetica;fontSize=12;align=center;strokeWidth=1;spacing=6;spacingTop=-4;" parent="uNoOjs_nZpWFQxZ7lYyd-1" vertex="1">
          <mxGeometry x="440" y="405" width="130" height="110" as="geometry" />
        </mxCell>
        <mxCell id="uNoOjs_nZpWFQxZ7lYyd-5" value="" style="endArrow=classic;html=1;entryX=0.5;entryY=0;entryDx=0;entryDy=0;exitX=1;exitY=0.5;exitDx=0;exitDy=0;rounded=0;" parent="uNoOjs_nZpWFQxZ7lYyd-1" target="uNoOjs_nZpWFQxZ7lYyd-13" edge="1">
          <mxGeometry width="50" height="50" relative="1" as="geometry">
            <mxPoint x="140" y="80" as="sourcePoint" />
            <mxPoint x="204" y="150" as="targetPoint" />
            <Array as="points">
              <mxPoint x="204" y="80" />
              <mxPoint x="300" y="80" />
            </Array>
          </mxGeometry>
        </mxCell>
        <mxCell id="uNoOjs_nZpWFQxZ7lYyd-8" value="" style="edgeStyle=orthogonalEdgeStyle;rounded=0;orthogonalLoop=1;jettySize=auto;html=1;exitX=0.5;exitY=1;exitDx=0;exitDy=0;entryX=0;entryY=0.5;entryDx=0;entryDy=0;" parent="uNoOjs_nZpWFQxZ7lYyd-1" source="uNoOjs_nZpWFQxZ7lYyd-4" target="uNoOjs_nZpWFQxZ7lYyd-11" edge="1">
          <mxGeometry relative="1" as="geometry">
            <mxPoint x="538.8" y="555" as="sourcePoint" />
            <mxPoint x="648.8" y="615" as="targetPoint" />
            <Array as="points">
              <mxPoint x="505" y="600" />
            </Array>
          </mxGeometry>
        </mxCell>
        <mxCell id="uNoOjs_nZpWFQxZ7lYyd-9" value="Yes" style="edgeLabel;html=1;align=center;verticalAlign=middle;resizable=0;points=[];" parent="uNoOjs_nZpWFQxZ7lYyd-8" vertex="1" connectable="0">
          <mxGeometry x="-0.8222" y="1" relative="1" as="geometry">
            <mxPoint x="-1" y="-11.5" as="offset" />
          </mxGeometry>
        </mxCell>
        <mxCell id="uNoOjs_nZpWFQxZ7lYyd-10" value="&lt;h1&gt;Ransom - Recover&lt;br&gt;&lt;/h1&gt;" style="text;html=1;strokeColor=none;fillColor=none;spacing=5;spacingTop=-20;whiteSpace=wrap;overflow=hidden;rounded=0;" parent="uNoOjs_nZpWFQxZ7lYyd-1" vertex="1">
          <mxGeometry x="10" y="10" width="290" height="40" as="geometry" />
        </mxCell>
        <mxCell id="uNoOjs_nZpWFQxZ7lYyd-11" value="&lt;div&gt;Next&lt;/div&gt;(Post Incident)" style="shape=step;perimeter=stepPerimeter;whiteSpace=wrap;html=1;fixedSize=1;" parent="uNoOjs_nZpWFQxZ7lYyd-1" vertex="1">
          <mxGeometry x="880" y="580" width="120" height="40" as="geometry" />
        </mxCell>
        <mxCell id="uNoOjs_nZpWFQxZ7lYyd-12" value="&lt;div&gt;Previous&lt;/div&gt;(Cont./Erad.)" style="shape=step;perimeter=stepPerimeter;whiteSpace=wrap;html=1;fixedSize=1;" parent="uNoOjs_nZpWFQxZ7lYyd-1" vertex="1">
          <mxGeometry x="24" y="60" width="120" height="40" as="geometry" />
        </mxCell>
        <mxCell id="toqI_Zj7t0s_2hl76Pep-3" value="" style="edgeStyle=orthogonalEdgeStyle;rounded=0;orthogonalLoop=1;jettySize=auto;html=1;entryX=0;entryY=0.5;entryDx=0;entryDy=0;" parent="uNoOjs_nZpWFQxZ7lYyd-1" source="uNoOjs_nZpWFQxZ7lYyd-13" target="uNoOjs_nZpWFQxZ7lYyd-20" edge="1">
          <mxGeometry relative="1" as="geometry" />
        </mxCell>
        <mxCell id="uNoOjs_nZpWFQxZ7lYyd-13" value="Update &lt;br&gt;Defenses" style="whiteSpace=wrap;html=1;" parent="uNoOjs_nZpWFQxZ7lYyd-1" vertex="1">
          <mxGeometry x="240" y="150" width="120" height="60" as="geometry" />
        </mxCell>
        <mxCell id="uNoOjs_nZpWFQxZ7lYyd-17" value="RR1" style="whiteSpace=wrap;html=1;aspect=fixed;fillColor=#E6E6E6;rotation=0;" parent="uNoOjs_nZpWFQxZ7lYyd-1" vertex="1">
          <mxGeometry x="240" y="120" width="30" height="30" as="geometry" />
        </mxCell>
        <mxCell id="toqI_Zj7t0s_2hl76Pep-4" value="" style="edgeStyle=orthogonalEdgeStyle;rounded=0;orthogonalLoop=1;jettySize=auto;html=1;entryX=0;entryY=0.5;entryDx=0;entryDy=0;" parent="uNoOjs_nZpWFQxZ7lYyd-1" source="uNoOjs_nZpWFQxZ7lYyd-20" target="uNoOjs_nZpWFQxZ7lYyd-22" edge="1">
          <mxGeometry relative="1" as="geometry" />
        </mxCell>
        <mxCell id="uNoOjs_nZpWFQxZ7lYyd-20" value="Change All Passwords" style="rounded=0;whiteSpace=wrap;html=1;" parent="uNoOjs_nZpWFQxZ7lYyd-1" vertex="1">
          <mxGeometry x="440" y="150" width="120" height="60" as="geometry" />
        </mxCell>
        <mxCell id="IJ6cZkXUIdS8VOiS5yHz-0" style="edgeStyle=orthogonalEdgeStyle;rounded=0;orthogonalLoop=1;jettySize=auto;html=1;" parent="uNoOjs_nZpWFQxZ7lYyd-1" source="uNoOjs_nZpWFQxZ7lYyd-22" target="Il-XjjSzzvxkX9Hlfuqu-1" edge="1">
          <mxGeometry relative="1" as="geometry" />
        </mxCell>
        <mxCell id="uNoOjs_nZpWFQxZ7lYyd-22" value="Remove" style="rounded=0;whiteSpace=wrap;html=1;" parent="uNoOjs_nZpWFQxZ7lYyd-1" vertex="1">
          <mxGeometry x="640" y="150" width="120" height="60" as="geometry" />
        </mxCell>
        <mxCell id="eVGTT5rixgvdxtt0i7UD-0" value="RR2" style="whiteSpace=wrap;html=1;aspect=fixed;fillColor=#E6E6E6;rotation=0;" parent="uNoOjs_nZpWFQxZ7lYyd-1" vertex="1">
          <mxGeometry x="440" y="120" width="30" height="30" as="geometry" />
        </mxCell>
        <mxCell id="toqI_Zj7t0s_2hl76Pep-0" value="&lt;div align=&quot;left&quot;&gt;&lt;ul&gt;&lt;li&gt;&lt;span style=&quot;text-align: center&quot;&gt;Change krbtgt Password&lt;/span&gt;&lt;/li&gt;&lt;li&gt;&lt;span style=&quot;text-align: center&quot;&gt;Reset All Priviledge Accounts&lt;/span&gt;&lt;/li&gt;&lt;/ul&gt;&lt;/div&gt;" style="text;html=1;resizable=0;autosize=1;align=center;verticalAlign=middle;points=[];fillColor=none;strokeColor=none;rounded=0;" parent="uNoOjs_nZpWFQxZ7lYyd-1" vertex="1">
          <mxGeometry x="405" y="210" width="210" height="60" as="geometry" />
        </mxCell>
        <mxCell id="toqI_Zj7t0s_2hl76Pep-2" value="&lt;div&gt;&lt;ul&gt;&lt;li&gt;&lt;span&gt;VPN&lt;/span&gt;&lt;/li&gt;&lt;li&gt;&lt;span&gt;Jumpbox&lt;/span&gt;&lt;/li&gt;&lt;li&gt;&lt;span&gt;Citrix&lt;/span&gt;&lt;/li&gt;&lt;/ul&gt;&lt;/div&gt;" style="text;html=1;resizable=0;autosize=1;align=left;verticalAlign=middle;points=[];fillColor=none;strokeColor=none;rounded=0;" parent="uNoOjs_nZpWFQxZ7lYyd-1" vertex="1">
          <mxGeometry x="610" y="210" width="100" height="70" as="geometry" />
        </mxCell>
        <mxCell id="Il-XjjSzzvxkX9Hlfuqu-0" value="RR3" style="whiteSpace=wrap;html=1;aspect=fixed;fillColor=#E6E6E6;rotation=0;" parent="uNoOjs_nZpWFQxZ7lYyd-1" vertex="1">
          <mxGeometry x="640" y="120" width="30" height="30" as="geometry" />
        </mxCell>
        <mxCell id="IJ6cZkXUIdS8VOiS5yHz-3" style="edgeStyle=orthogonalEdgeStyle;rounded=0;orthogonalLoop=1;jettySize=auto;html=1;exitX=1;exitY=0.5;exitDx=0;exitDy=0;entryX=1;entryY=0.5;entryDx=0;entryDy=0;" parent="uNoOjs_nZpWFQxZ7lYyd-1" source="Il-XjjSzzvxkX9Hlfuqu-1" target="IJ6cZkXUIdS8VOiS5yHz-1" edge="1">
          <mxGeometry relative="1" as="geometry">
            <Array as="points">
              <mxPoint x="1040" y="180" />
              <mxPoint x="1040" y="460" />
            </Array>
          </mxGeometry>
        </mxCell>
        <mxCell id="Il-XjjSzzvxkX9Hlfuqu-1" value="Rebuild Systems" style="rounded=0;whiteSpace=wrap;html=1;" parent="uNoOjs_nZpWFQxZ7lYyd-1" vertex="1">
          <mxGeometry x="840" y="150" width="120" height="60" as="geometry" />
        </mxCell>
        <mxCell id="Il-XjjSzzvxkX9Hlfuqu-2" value="RR4" style="whiteSpace=wrap;html=1;aspect=fixed;fillColor=#E6E6E6;rotation=0;" parent="uNoOjs_nZpWFQxZ7lYyd-1" vertex="1">
          <mxGeometry x="840" y="120" width="30" height="30" as="geometry" />
        </mxCell>
        <mxCell id="Il-XjjSzzvxkX9Hlfuqu-3" value="&lt;div&gt;&lt;ul&gt;&lt;li&gt;&lt;span&gt;Install OS from Clean Media&lt;/span&gt;&lt;/li&gt;&lt;li&gt;&lt;span&gt;Can we upgrade OS?&lt;/span&gt;&lt;/li&gt;&lt;/ul&gt;&lt;/div&gt;" style="text;html=1;resizable=0;autosize=1;align=left;verticalAlign=middle;points=[];fillColor=none;strokeColor=none;rounded=0;" parent="uNoOjs_nZpWFQxZ7lYyd-1" vertex="1">
          <mxGeometry x="810" y="210" width="210" height="60" as="geometry" />
        </mxCell>
        <mxCell id="rvAQiAtRHftjp3YUlVIJ-1" style="edgeStyle=orthogonalEdgeStyle;rounded=0;orthogonalLoop=1;jettySize=auto;html=1;exitX=0;exitY=0.5;exitDx=0;exitDy=0;entryX=1;entryY=0.5;entryDx=0;entryDy=0;" parent="uNoOjs_nZpWFQxZ7lYyd-1" source="IJ6cZkXUIdS8VOiS5yHz-1" target="uNoOjs_nZpWFQxZ7lYyd-4" edge="1">
          <mxGeometry relative="1" as="geometry" />
        </mxCell>
        <mxCell id="IJ6cZkXUIdS8VOiS5yHz-1" value="Restore Data" style="rounded=0;whiteSpace=wrap;html=1;" parent="uNoOjs_nZpWFQxZ7lYyd-1" vertex="1">
          <mxGeometry x="735" y="430" width="120" height="60" as="geometry" />
        </mxCell>
        <mxCell id="IJ6cZkXUIdS8VOiS5yHz-2" value="RR5" style="whiteSpace=wrap;html=1;aspect=fixed;fillColor=#E6E6E6;rotation=0;" parent="uNoOjs_nZpWFQxZ7lYyd-1" vertex="1">
          <mxGeometry x="735" y="400" width="30" height="30" as="geometry" />
        </mxCell>
        <mxCell id="IJ6cZkXUIdS8VOiS5yHz-4" value="&lt;ul&gt;&lt;li style=&quot;text-align: left&quot;&gt;From Clean Backup&lt;/li&gt;&lt;/ul&gt;" style="text;html=1;resizable=0;autosize=1;align=center;verticalAlign=middle;points=[];fillColor=none;strokeColor=none;rounded=0;" parent="uNoOjs_nZpWFQxZ7lYyd-1" vertex="1">
          <mxGeometry x="710" y="490" width="160" height="40" as="geometry" />
        </mxCell>
        <mxCell id="rvAQiAtRHftjp3YUlVIJ-0" value="&lt;div&gt;&lt;ul&gt;&lt;li&gt;Lift Containment&lt;/li&gt;&lt;li&gt;Proxy&lt;/li&gt;&lt;li&gt;Firewall&lt;/li&gt;&lt;li&gt;Reconnect Shared Drive&lt;/li&gt;&lt;li&gt;Re-enable Backup Links&lt;/li&gt;&lt;li&gt;Enable Network Interfaces&lt;/li&gt;&lt;li&gt;Update AV/EDR&lt;/li&gt;&lt;ul&gt;&lt;li&gt;Engine&lt;/li&gt;&lt;li&gt;Policies&lt;/li&gt;&lt;li&gt;Definitions&lt;/li&gt;&lt;/ul&gt;&lt;li&gt;etc.&lt;/li&gt;&lt;/ul&gt;&lt;/div&gt;" style="text;html=1;resizable=0;autosize=1;align=left;verticalAlign=middle;points=[];fillColor=none;strokeColor=none;rounded=0;" parent="uNoOjs_nZpWFQxZ7lYyd-1" vertex="1">
          <mxGeometry x="210" y="210" width="200" height="180" as="geometry" />
        </mxCell>
      </root>
    </mxGraphModel>
  </diagram>
  <diagram id="iFfWp4zxMLp3JL1bCDCJ" name="Post Incident">
    <mxGraphModel dx="1186" dy="767" grid="1" gridSize="10" guides="1" tooltips="1" connect="1" arrows="1" fold="1" page="1" pageScale="1" pageWidth="1100" pageHeight="850" math="0" shadow="0">
      <root>
        <mxCell id="KQ6ddqPjCaDnHBi0Ce0M-0" />
        <mxCell id="KQ6ddqPjCaDnHBi0Ce0M-1" parent="KQ6ddqPjCaDnHBi0Ce0M-0" />
        <mxCell id="Tny-0nx75FtS5ZL5CtNR-0" value="&lt;div style=&quot;font-size: 12px&quot;&gt;RP7&lt;/div&gt;" style="whiteSpace=wrap;html=1;aspect=fixed;fillColor=#E6E6E6;rotation=319;fontSize=12;" parent="KQ6ddqPjCaDnHBi0Ce0M-1" vertex="1">
          <mxGeometry x="184" y="565" width="30" height="30" as="geometry" />
        </mxCell>
        <mxCell id="Tny-0nx75FtS5ZL5CtNR-1" style="edgeStyle=orthogonalEdgeStyle;rounded=0;orthogonalLoop=1;jettySize=auto;html=1;exitX=0.5;exitY=1;exitDx=0;exitDy=0;" parent="KQ6ddqPjCaDnHBi0Ce0M-1" edge="1">
          <mxGeometry relative="1" as="geometry">
            <mxPoint x="80" y="100" as="sourcePoint" />
            <mxPoint x="80" y="100" as="targetPoint" />
          </mxGeometry>
        </mxCell>
        <mxCell id="Tny-0nx75FtS5ZL5CtNR-2" value="&lt;h1&gt;Ransom - Post Incident&lt;br&gt;&lt;/h1&gt;" style="text;html=1;strokeColor=none;fillColor=none;spacing=5;spacingTop=-20;whiteSpace=wrap;overflow=hidden;rounded=0;" parent="KQ6ddqPjCaDnHBi0Ce0M-1" vertex="1">
          <mxGeometry x="10" y="10" width="390" height="40" as="geometry" />
        </mxCell>
        <mxCell id="Tny-0nx75FtS5ZL5CtNR-3" style="edgeStyle=orthogonalEdgeStyle;rounded=0;orthogonalLoop=1;jettySize=auto;html=1;exitX=1;exitY=0.5;exitDx=0;exitDy=0;entryX=1;entryY=0.5;entryDx=0;entryDy=0;" parent="KQ6ddqPjCaDnHBi0Ce0M-1" source="Tny-0nx75FtS5ZL5CtNR-4" target="Tny-0nx75FtS5ZL5CtNR-16" edge="1">
          <mxGeometry relative="1" as="geometry">
            <Array as="points">
              <mxPoint x="820" y="190" />
              <mxPoint x="820" y="430" />
            </Array>
          </mxGeometry>
        </mxCell>
        <mxCell id="Tny-0nx75FtS5ZL5CtNR-4" value="Review Defensive Posture" style="whiteSpace=wrap;html=1;" parent="KQ6ddqPjCaDnHBi0Ce0M-1" vertex="1">
          <mxGeometry x="620" y="160" width="120" height="60" as="geometry" />
        </mxCell>
        <mxCell id="Tny-0nx75FtS5ZL5CtNR-5" value="&lt;div&gt;Stop&lt;/div&gt;" style="ellipse;whiteSpace=wrap;html=1;" parent="KQ6ddqPjCaDnHBi0Ce0M-1" vertex="1">
          <mxGeometry x="690" y="600" width="120" height="40" as="geometry" />
        </mxCell>
        <mxCell id="Tny-0nx75FtS5ZL5CtNR-6" style="edgeStyle=orthogonalEdgeStyle;rounded=0;orthogonalLoop=1;jettySize=auto;html=1;exitX=1;exitY=0.5;exitDx=0;exitDy=0;" parent="KQ6ddqPjCaDnHBi0Ce0M-1" source="Tny-0nx75FtS5ZL5CtNR-7" target="Tny-0nx75FtS5ZL5CtNR-4" edge="1">
          <mxGeometry relative="1" as="geometry" />
        </mxCell>
        <mxCell id="Tny-0nx75FtS5ZL5CtNR-7" value="&lt;div&gt;Update Policies &amp;amp;&lt;/div&gt;&lt;div&gt;Procedures&lt;br&gt;&lt;/div&gt;" style="shape=document;whiteSpace=wrap;html=1;boundedLbl=1;rounded=0;sketch=0;" parent="KQ6ddqPjCaDnHBi0Ce0M-1" vertex="1">
          <mxGeometry x="400" y="160" width="120" height="60" as="geometry" />
        </mxCell>
        <mxCell id="Tny-0nx75FtS5ZL5CtNR-8" value="" style="endArrow=classic;html=1;entryX=0.5;entryY=0;entryDx=0;entryDy=0;exitX=1;exitY=0.5;exitDx=0;exitDy=0;rounded=0;" parent="KQ6ddqPjCaDnHBi0Ce0M-1" target="Tny-0nx75FtS5ZL5CtNR-11" edge="1">
          <mxGeometry width="50" height="50" relative="1" as="geometry">
            <mxPoint x="150" y="90" as="sourcePoint" />
            <mxPoint x="170" y="120" as="targetPoint" />
            <Array as="points">
              <mxPoint x="244" y="90" />
            </Array>
          </mxGeometry>
        </mxCell>
        <mxCell id="Tny-0nx75FtS5ZL5CtNR-9" value="&lt;div&gt;Previous&lt;/div&gt;(Detect)" style="shape=step;perimeter=stepPerimeter;whiteSpace=wrap;html=1;fixedSize=1;" parent="KQ6ddqPjCaDnHBi0Ce0M-1" vertex="1">
          <mxGeometry x="34" y="70" width="120" height="40" as="geometry" />
        </mxCell>
        <mxCell id="Tny-0nx75FtS5ZL5CtNR-10" style="edgeStyle=orthogonalEdgeStyle;rounded=0;orthogonalLoop=1;jettySize=auto;html=1;exitX=1;exitY=0.5;exitDx=0;exitDy=0;entryX=0;entryY=0.5;entryDx=0;entryDy=0;" parent="KQ6ddqPjCaDnHBi0Ce0M-1" source="Tny-0nx75FtS5ZL5CtNR-11" target="Tny-0nx75FtS5ZL5CtNR-7" edge="1">
          <mxGeometry relative="1" as="geometry" />
        </mxCell>
        <mxCell id="Tny-0nx75FtS5ZL5CtNR-11" value="&lt;div&gt;Incident&lt;/div&gt;&lt;div&gt;Review&lt;br&gt;&lt;/div&gt;" style="whiteSpace=wrap;html=1;" parent="KQ6ddqPjCaDnHBi0Ce0M-1" vertex="1">
          <mxGeometry x="184" y="160" width="120" height="60" as="geometry" />
        </mxCell>
        <mxCell id="Tny-0nx75FtS5ZL5CtNR-12" value="&lt;div align=&quot;left&quot;&gt;&lt;ul&gt;&lt;li&gt;What Worked&lt;/li&gt;&lt;li&gt;What Didn&#39;t Work&lt;br&gt;&lt;/li&gt;&lt;/ul&gt;&lt;/div&gt;" style="text;html=1;resizable=0;autosize=1;align=center;verticalAlign=middle;points=[];fillColor=none;strokeColor=none;rounded=0;" parent="KQ6ddqPjCaDnHBi0Ce0M-1" vertex="1">
          <mxGeometry x="154" y="220" width="150" height="60" as="geometry" />
        </mxCell>
        <mxCell id="Tny-0nx75FtS5ZL5CtNR-13" value="&lt;div align=&quot;left&quot;&gt;&lt;ul&gt;&lt;li&gt;Documentations:&lt;/li&gt;&lt;ul&gt;&lt;li&gt;Policies&lt;/li&gt;&lt;li&gt;Playbooks&lt;/li&gt;&lt;li&gt;Runbooks&lt;br&gt;&lt;/li&gt;&lt;li&gt;Procedures&lt;/li&gt;&lt;li&gt;etc.&lt;/li&gt;&lt;/ul&gt;&lt;li&gt;Detection Rules:&lt;/li&gt;&lt;ul&gt;&lt;li&gt;SIEM&lt;/li&gt;&lt;li&gt;AV / EDR&lt;/li&gt;&lt;li&gt;Other security solution&lt;br&gt;&lt;/li&gt;&lt;/ul&gt;&lt;/ul&gt;&lt;/div&gt;" style="text;html=1;resizable=0;autosize=1;align=center;verticalAlign=middle;points=[];fillColor=none;strokeColor=none;rounded=0;" parent="KQ6ddqPjCaDnHBi0Ce0M-1" vertex="1">
          <mxGeometry x="370" y="220" width="210" height="170" as="geometry" />
        </mxCell>
        <mxCell id="Tny-0nx75FtS5ZL5CtNR-14" value="&lt;div align=&quot;left&quot;&gt;&lt;ul&gt;&lt;li&gt;Schedule review of newly&lt;br&gt;introduced rules in 6 months&lt;/li&gt;&lt;li&gt;Are the following still applicable&lt;br&gt;&lt;/li&gt;&lt;ul&gt;&lt;li&gt;AV / EDR custom sigs&lt;br&gt;&lt;/li&gt;&lt;li&gt;IPS sigs&lt;/li&gt;&lt;li&gt;Etc.&lt;br&gt;&lt;/li&gt;&lt;/ul&gt;&lt;/ul&gt;&lt;/div&gt;" style="text;html=1;resizable=0;autosize=1;align=center;verticalAlign=middle;points=[];fillColor=none;strokeColor=none;rounded=0;" parent="KQ6ddqPjCaDnHBi0Ce0M-1" vertex="1">
          <mxGeometry x="585" y="220" width="220" height="110" as="geometry" />
        </mxCell>
        <mxCell id="Tny-0nx75FtS5ZL5CtNR-15" value="" style="edgeStyle=orthogonalEdgeStyle;rounded=0;orthogonalLoop=1;jettySize=auto;html=1;" parent="KQ6ddqPjCaDnHBi0Ce0M-1" source="Tny-0nx75FtS5ZL5CtNR-16" target="Tny-0nx75FtS5ZL5CtNR-19" edge="1">
          <mxGeometry relative="1" as="geometry" />
        </mxCell>
        <mxCell id="Tny-0nx75FtS5ZL5CtNR-16" value="&lt;div&gt;Update / Upgrade&lt;br&gt;Defences&lt;br&gt;&lt;/div&gt;" style="whiteSpace=wrap;html=1;" parent="KQ6ddqPjCaDnHBi0Ce0M-1" vertex="1">
          <mxGeometry x="620" y="400" width="120" height="60" as="geometry" />
        </mxCell>
        <mxCell id="Tny-0nx75FtS5ZL5CtNR-17" value="&lt;div&gt;Modify&lt;/div&gt;&lt;div&gt;Base Images&lt;br&gt;&lt;/div&gt;" style="whiteSpace=wrap;html=1;" parent="KQ6ddqPjCaDnHBi0Ce0M-1" vertex="1">
          <mxGeometry x="184" y="400" width="120" height="60" as="geometry" />
        </mxCell>
        <mxCell id="Tny-0nx75FtS5ZL5CtNR-18" value="" style="edgeStyle=orthogonalEdgeStyle;rounded=0;orthogonalLoop=1;jettySize=auto;html=1;" parent="KQ6ddqPjCaDnHBi0Ce0M-1" source="Tny-0nx75FtS5ZL5CtNR-19" target="Tny-0nx75FtS5ZL5CtNR-17" edge="1">
          <mxGeometry relative="1" as="geometry" />
        </mxCell>
        <mxCell id="Tny-0nx75FtS5ZL5CtNR-19" value="Build New&lt;br&gt;Detections" style="whiteSpace=wrap;html=1;" parent="KQ6ddqPjCaDnHBi0Ce0M-1" vertex="1">
          <mxGeometry x="400" y="400" width="120" height="60" as="geometry" />
        </mxCell>
        <mxCell id="Tny-0nx75FtS5ZL5CtNR-20" style="edgeStyle=orthogonalEdgeStyle;rounded=0;orthogonalLoop=1;jettySize=auto;html=1;entryX=0;entryY=0.5;entryDx=0;entryDy=0;" parent="KQ6ddqPjCaDnHBi0Ce0M-1" source="Tny-0nx75FtS5ZL5CtNR-21" target="Tny-0nx75FtS5ZL5CtNR-5" edge="1">
          <mxGeometry relative="1" as="geometry" />
        </mxCell>
        <mxCell id="Tny-0nx75FtS5ZL5CtNR-21" value="&lt;div&gt;Calculate&lt;/div&gt;&lt;div&gt;Incident&#39;s&lt;/div&gt;&lt;div&gt;Cost&lt;br&gt;&lt;/div&gt;" style="whiteSpace=wrap;html=1;" parent="KQ6ddqPjCaDnHBi0Ce0M-1" vertex="1">
          <mxGeometry x="400" y="590" width="120" height="60" as="geometry" />
        </mxCell>
        <mxCell id="Tny-0nx75FtS5ZL5CtNR-22" value="" style="edgeStyle=orthogonalEdgeStyle;rounded=0;orthogonalLoop=1;jettySize=auto;html=1;" parent="KQ6ddqPjCaDnHBi0Ce0M-1" source="Tny-0nx75FtS5ZL5CtNR-25" target="Tny-0nx75FtS5ZL5CtNR-21" edge="1">
          <mxGeometry relative="1" as="geometry" />
        </mxCell>
        <mxCell id="Tny-0nx75FtS5ZL5CtNR-23" value="No" style="edgeLabel;html=1;align=center;verticalAlign=middle;resizable=0;points=[];" parent="Tny-0nx75FtS5ZL5CtNR-22" vertex="1" connectable="0">
          <mxGeometry x="-0.2083" y="-2" relative="1" as="geometry">
            <mxPoint as="offset" />
          </mxGeometry>
        </mxCell>
        <mxCell id="Tny-0nx75FtS5ZL5CtNR-24" value="Yes" style="edgeStyle=orthogonalEdgeStyle;rounded=0;orthogonalLoop=1;jettySize=auto;html=1;" parent="KQ6ddqPjCaDnHBi0Ce0M-1" source="Tny-0nx75FtS5ZL5CtNR-25" target="Tny-0nx75FtS5ZL5CtNR-28" edge="1">
          <mxGeometry relative="1" as="geometry" />
        </mxCell>
        <mxCell id="Tny-0nx75FtS5ZL5CtNR-25" value="&lt;div&gt;Incident &lt;br&gt;&lt;/div&gt;&lt;div&gt;Cause&lt;/div&gt;&lt;div&gt;by Human&lt;br&gt;&lt;/div&gt;" style="rhombus;whiteSpace=wrap;html=1;shadow=0;fontFamily=Helvetica;fontSize=12;align=center;strokeWidth=1;spacing=6;spacingTop=-4;" parent="KQ6ddqPjCaDnHBi0Ce0M-1" vertex="1">
          <mxGeometry x="174" y="565" width="130" height="110" as="geometry" />
        </mxCell>
        <mxCell id="Tny-0nx75FtS5ZL5CtNR-26" style="edgeStyle=orthogonalEdgeStyle;rounded=0;orthogonalLoop=1;jettySize=auto;html=1;exitX=0;exitY=0.5;exitDx=0;exitDy=0;entryX=0;entryY=0.5;entryDx=0;entryDy=0;" parent="KQ6ddqPjCaDnHBi0Ce0M-1" source="Tny-0nx75FtS5ZL5CtNR-17" target="Tny-0nx75FtS5ZL5CtNR-25" edge="1">
          <mxGeometry relative="1" as="geometry">
            <mxPoint x="184" y="430" as="sourcePoint" />
            <mxPoint x="400" y="600" as="targetPoint" />
            <Array as="points">
              <mxPoint x="130" y="430" />
              <mxPoint x="130" y="620" />
            </Array>
          </mxGeometry>
        </mxCell>
        <mxCell id="Tny-0nx75FtS5ZL5CtNR-27" style="edgeStyle=orthogonalEdgeStyle;rounded=0;orthogonalLoop=1;jettySize=auto;html=1;exitX=1;exitY=0.5;exitDx=0;exitDy=0;entryX=0.5;entryY=1;entryDx=0;entryDy=0;" parent="KQ6ddqPjCaDnHBi0Ce0M-1" source="Tny-0nx75FtS5ZL5CtNR-28" target="Tny-0nx75FtS5ZL5CtNR-21" edge="1">
          <mxGeometry relative="1" as="geometry" />
        </mxCell>
        <mxCell id="Tny-0nx75FtS5ZL5CtNR-28" value="&lt;div&gt;User Awareness&lt;/div&gt;&lt;div&gt;Training&lt;br&gt;&lt;/div&gt;" style="whiteSpace=wrap;html=1;" parent="KQ6ddqPjCaDnHBi0Ce0M-1" vertex="1">
          <mxGeometry x="179" y="740" width="120" height="60" as="geometry" />
        </mxCell>
        <mxCell id="Tny-0nx75FtS5ZL5CtNR-29" value="RP1" style="whiteSpace=wrap;html=1;aspect=fixed;fillColor=#E6E6E6;rotation=0;" parent="KQ6ddqPjCaDnHBi0Ce0M-1" vertex="1">
          <mxGeometry x="184" y="130" width="30" height="30" as="geometry" />
        </mxCell>
        <mxCell id="Tny-0nx75FtS5ZL5CtNR-30" value="RP2" style="whiteSpace=wrap;html=1;aspect=fixed;fillColor=#E6E6E6;rotation=0;" parent="KQ6ddqPjCaDnHBi0Ce0M-1" vertex="1">
          <mxGeometry x="400" y="130" width="30" height="30" as="geometry" />
        </mxCell>
        <mxCell id="Tny-0nx75FtS5ZL5CtNR-31" value="RP3" style="whiteSpace=wrap;html=1;aspect=fixed;fillColor=#E6E6E6;rotation=0;" parent="KQ6ddqPjCaDnHBi0Ce0M-1" vertex="1">
          <mxGeometry x="620" y="130" width="30" height="30" as="geometry" />
        </mxCell>
        <mxCell id="Tny-0nx75FtS5ZL5CtNR-32" value="RP4" style="whiteSpace=wrap;html=1;aspect=fixed;fillColor=#E6E6E6;rotation=0;" parent="KQ6ddqPjCaDnHBi0Ce0M-1" vertex="1">
          <mxGeometry x="620" y="370" width="30" height="30" as="geometry" />
        </mxCell>
        <mxCell id="Tny-0nx75FtS5ZL5CtNR-33" value="RP5" style="whiteSpace=wrap;html=1;aspect=fixed;fillColor=#E6E6E6;rotation=0;" parent="KQ6ddqPjCaDnHBi0Ce0M-1" vertex="1">
          <mxGeometry x="400" y="370" width="30" height="30" as="geometry" />
        </mxCell>
        <mxCell id="Tny-0nx75FtS5ZL5CtNR-34" value="RP6" style="whiteSpace=wrap;html=1;aspect=fixed;fillColor=#E6E6E6;rotation=0;" parent="KQ6ddqPjCaDnHBi0Ce0M-1" vertex="1">
          <mxGeometry x="184" y="370" width="30" height="30" as="geometry" />
        </mxCell>
        <mxCell id="Tny-0nx75FtS5ZL5CtNR-35" value="RP9" style="whiteSpace=wrap;html=1;aspect=fixed;fillColor=#E6E6E6;rotation=0;" parent="KQ6ddqPjCaDnHBi0Ce0M-1" vertex="1">
          <mxGeometry x="400" y="560" width="30" height="30" as="geometry" />
        </mxCell>
        <mxCell id="Tny-0nx75FtS5ZL5CtNR-36" value="RP8" style="whiteSpace=wrap;html=1;aspect=fixed;fillColor=#E6E6E6;rotation=0;" parent="KQ6ddqPjCaDnHBi0Ce0M-1" vertex="1">
          <mxGeometry x="179" y="710" width="30" height="30" as="geometry" />
        </mxCell>
        <mxCell id="Tny-0nx75FtS5ZL5CtNR-37" value="&lt;div align=&quot;left&quot;&gt;&lt;ul&gt;&lt;li&gt;Anti-Virus&lt;/li&gt;&lt;ul&gt;&lt;li&gt;Signature&lt;/li&gt;&lt;li&gt;Engine&lt;/li&gt;&lt;/ul&gt;&lt;li&gt;EDR&lt;/li&gt;&lt;ul&gt;&lt;li&gt;Behavior of the malware&lt;/li&gt;&lt;/ul&gt;&lt;li&gt;Anti-Spam / Anti-Phish&lt;/li&gt;&lt;/ul&gt;&lt;/div&gt;" style="text;html=1;resizable=0;autosize=1;align=center;verticalAlign=middle;points=[];fillColor=none;strokeColor=none;rounded=0;" parent="KQ6ddqPjCaDnHBi0Ce0M-1" vertex="1">
          <mxGeometry x="580" y="460" width="220" height="110" as="geometry" />
        </mxCell>
        <mxCell id="Tny-0nx75FtS5ZL5CtNR-38" value="&lt;div align=&quot;left&quot;&gt;&lt;ul&gt;&lt;li&gt;SIEM Rules&lt;/li&gt;&lt;li&gt;Tickets&lt;br&gt;&lt;/li&gt;&lt;/ul&gt;&lt;/div&gt;" style="text;html=1;resizable=0;autosize=1;align=center;verticalAlign=middle;points=[];fillColor=none;strokeColor=none;rounded=0;" parent="KQ6ddqPjCaDnHBi0Ce0M-1" vertex="1">
          <mxGeometry x="375" y="460" width="120" height="60" as="geometry" />
        </mxCell>
        <mxCell id="Tny-0nx75FtS5ZL5CtNR-39" value="&lt;div align=&quot;left&quot;&gt;&lt;ul&gt;&lt;li&gt;Review Hardening Process&lt;/li&gt;&lt;li&gt;Include Patch in OS Images&lt;/li&gt;&lt;li&gt;Upgrade Apps&lt;/li&gt;&lt;li&gt;Patch Apps&lt;/li&gt;&lt;/ul&gt;&lt;/div&gt;" style="text;html=1;resizable=0;autosize=1;align=center;verticalAlign=middle;points=[];fillColor=none;strokeColor=none;rounded=0;" parent="KQ6ddqPjCaDnHBi0Ce0M-1" vertex="1">
          <mxGeometry x="154" y="460" width="200" height="90" as="geometry" />
        </mxCell>
      </root>
    </mxGraphModel>
  </diagram>
</mxfile>
